<?xml version="1.0" encoding="UTF-8" standalone="no"?>
<svg
   xmlns:dc="http://purl.org/dc/elements/1.1/"
   xmlns:cc="http://creativecommons.org/ns#"
   xmlns:rdf="http://www.w3.org/1999/02/22-rdf-syntax-ns#"
   xmlns:svg="http://www.w3.org/2000/svg"
   xmlns="http://www.w3.org/2000/svg"
   xmlns:sodipodi="http://sodipodi.sourceforge.net/DTD/sodipodi-0.dtd"
   xmlns:inkscape="http://www.inkscape.org/namespaces/inkscape"
   viewBox="0 0 684.70001 1000"
   id="svg2"
   height="1000"
   width="684.70001"
   version="1.1"
   sodipodi:docname="Escudo de Armas de Culiacán, Sinaloa.svg"
   inkscape:version="1.0.1 (3bc2e813f5, 2020-09-07)">
  <sodipodi:namedview
     pagecolor="#ffffff"
     bordercolor="#666666"
     borderopacity="1"
     objecttolerance="10"
     gridtolerance="10"
     guidetolerance="10"
     inkscape:pageopacity="0"
     inkscape:pageshadow="2"
     inkscape:window-width="1366"
     inkscape:window-height="705"
     id="namedview251"
     showgrid="false"
     inkscape:zoom="0.42142514"
     inkscape:cx="193.20886"
     inkscape:cy="348.26257"
     inkscape:window-x="-8"
     inkscape:window-y="-8"
     inkscape:window-maximized="1"
     inkscape:current-layer="svg2" />
  <metadata
     id="metadata500">
    <rdf:RDF>
      <cc:Work
         rdf:about="">
        <dc:format>image/svg+xml</dc:format>
        <dc:type
           rdf:resource="http://purl.org/dc/dcmitype/StillImage" />
        <dc:title></dc:title>
      </cc:Work>
    </rdf:RDF>
  </metadata>
  <defs
     id="defs498" />
  <g
     id="g4"
     transform="matrix(3.4999583,0,0,3.4998443,-568.35473,-570.952)">
    <path
       id="path6"
       style="fill:#1b1918;fill-rule:evenodd"
       d="m 162.389,267.71 58.7409,-25.6626 -12.3851,-28.6627 26.8935,9.5542 24.7702,-59.8025 24.4165,60.1564 25.478,-9.8037 -12.0313,27.1429 59.7482,27.078 z" />
    <path
       id="path8"
       style="fill:#eeb00d;fill-opacity:1;fill-rule:evenodd"
       d="m 220.1562,231.5307 -5.2671,-12.5294 13.0771,4.9601 1.6999,3.8857 -5.6976,6.2079 z" />
    <path
       id="path10"
       style="fill:#eeb00d;fill-opacity:1;fill-rule:evenodd"
       d="m 289.3402,225.1545 15.4063,-6.1832 -6.6498,14.8785 -4.1102,2.0307 -6.7227,-7.9449 z" />
    <path
       id="path12"
       style="fill:#de0714;fill-opacity:1;fill-rule:evenodd"
       d="m 176.5877,264.7394 48.5892,-20.7308 12.1949,-16.4707 22.6326,-53.4318 22.3093,53.748 11.5783,15.492 49.8819,21.3936 z" />
    <path
       id="path14"
       style="fill:#1b1918;fill-rule:evenodd"
       d="m 207.8889,257.8561 -15.6027,6.8888 16.9064,-0.005 0.5822,-5.5066 c 5.2699,0.3039 87.8259,0.0235 101.0424,-0.0233 l 0.5848,5.5355 16.9061,-0.006 -14.6086,-6.4676 32.4334,-28.7546 -53.6476,2.8627 4.6102,-57.3928 -36.4637,41.8853 -36.0445,-41.8853 4.1913,56.9738 -55.3241,-2.4437 z" />
    <path
       id="path16"
       style="fill:#eeb00d;fill-opacity:1;fill-rule:evenodd"
       d="m 209.6067,260.078 -9.8885,4.6513 9.5899,0.0101 z" />
    <path
       id="path18"
       style="fill:#eeb00d;fill-opacity:1;fill-rule:evenodd"
       d="m 310.9878,260.078 9.8884,4.6616 -9.5898,-0.0592 z" />
    <path
       id="path20"
       style="fill:#a00000;fill-opacity:1;fill-rule:evenodd"
       d="m 215.0269,259.2187 -31.9327,-25.4834 49.4321,1.4894 -4.1323,-51.0885 32.3519,38.1735 32.7231,-38.1735 -4.9228,50.6325 47.9469,-1.0334 -30.124,25.4834 c 0,0 -90.9285,0.3305 -91.3422,0 z" />
    <path
       id="path22"
       style="fill:#1b1918;fill-rule:evenodd"
       d="m 259.9586,195.7555 4.4155,10.8091 2.4933,6.1016 c -2.0364,-0.2441 -4.1071,-0.3728 -6.2076,-0.3728 -2.6127,0 -5.18,0.1956 -7.6909,0.5706 l 2.5741,-6.2994 z" />
    <path
       id="path24"
       style="fill:#eeb00d;fill-opacity:1;fill-rule:evenodd"
       d="m 259.9586,200.9404 2.6577,6.8542 1.798,4.6357 -8.9594,0.1233 1.8459,-4.759 z" />
    <path
       id="path26"
       style="fill:#1b1918;fill-rule:evenodd"
       d="m 260.6598,212.2935 c 28.6531,0 52.023,23.3699 52.023,52.023 0,0.3397 -0.007,0.6776 -0.0132,1.0162 H 208.65 c -0.006,-0.3386 -0.0132,-0.6765 -0.0132,-1.0162 0,-28.6531 23.3699,-52.023 52.023,-52.023 z" />
    <path
       id="path28"
       style="fill:#eeb00d;fill-opacity:1;fill-rule:evenodd"
       d="m 260.6597,214.8068 c 27.2954,0 49.5579,22.2625 49.5579,49.5579 0,0.3236 -0.007,0.6454 -0.0126,0.968 h -99.0906 c -0.006,-0.3226 -0.0126,-0.6444 -0.0126,-0.968 0,-27.2954 22.2625,-49.5579 49.5579,-49.5579 z" />
    <path
       id="path30"
       style="fill:#1b1918;fill-rule:evenodd"
       d="m 260.0115,243.6544 25.3632,10.8582 25.3632,10.8582 h -50.7264 -50.7264 l 25.3632,-10.8582 z" />
    <path
       id="path32"
       style="fill:#f49325;fill-rule:evenodd"
       d="m 260.0115,245.5992 23.0919,9.8858 23.0919,9.8859 h -46.1838 -46.1837 l 23.0919,-9.8859 z" />
    <path
       id="path34"
       style="fill:#1b1918;fill-rule:evenodd"
       d="m 260.1315,237.8492 c 0.008,-0.0117 0.0164,-0.0227 0.0246,-0.0343 0.2741,0.7795 1.5721,1.6761 3.1198,1.2075 1.77,-1.6639 2.6598,-2.4874 3.6916,-3.4115 0.2327,-1.1089 2.1013,-0.8626 3.4415,0.8745 2.4767,2.9571 8.1783,2.2955 9.434,0.0142 -2.4979,-0.538 -4.1882,-0.762 -7.8712,-5.9 -1.8525,-2.5084 -4.5431,-2.6742 -6.2737,-0.8541 -0.5264,0.5371 -0.9955,1.0434 -1.4249,1.5389 l -0.0644,-0.3804 c -0.8277,-6.247 -4.9737,-5.1392 -7.6807,-11.0489 -1.8547,3.8112 -1.9627,7.7961 0.0368,11.9923 0.057,0.0827 0.1194,0.172 0.1857,0.2656 -3.2205,-1.5483 -6.2504,-1.2935 -7.4551,1.2543 -0.9468,2.2008 -1.6776,4.4736 -2.8418,6.6019 2.7426,-1.1486 5.8975,-4.3852 8.0989,-3.7012 1.8774,0.0564 4.3271,0.3875 5.5789,1.5812 z" />
    <path
       id="path36"
       style="fill:#1b1918;fill-rule:evenodd"
       d="M 185.3923,264.7397 H 339.275 v 151.085 c 0,16.8188 -9.5153,28.557 -22.9247,28.557 h -42.8236 c -4.0117,0 -8.6437,1.7904 -11.1696,4.4817 -3.1903,-3.0653 -6.9836,-4.4817 -10.9179,-4.4817 h -39.7634 c -16.1619,0 -26.2835,-10.021 -26.2835,-26.2221 z" />
    <path
       id="path38"
       style="fill:#761112;fill-opacity:1;fill-rule:evenodd"
       d="m 188.4117,267.71 h 147.8439 v 148.6319 c 0,12.9018 -8.4917,24.8233 -22.1703,24.8233 h -37.8477 c -3.3207,0 -11.8068,0.1978 -13.9637,3.7351 -2.3389,-3.8883 -10.5766,-3.7351 -14.485,-3.7351 h -38.3242 c -11.4874,0 -21.053,-9.6974 -21.053,-24.5413 z" />
    <path
       id="path40"
       style="fill:#1b1918;fill-rule:evenodd"
       d="m 211.3553,288.9805 h 98.5633 v 115.6586 c -0.112,8.3528 -4.439,10.6318 -9.9767,10.6923 h -77.7907 c -6.9205,-0.0187 -10.7123,-5.0525 -10.7959,-8.6984 z" />
    <path
       id="path42"
       style="fill:#b97e40;fill-opacity:1;fill-rule:evenodd"
       d="m 215.1938,292.8143 h 91.309 v 112.8465 c 0,4.5669 -1.7951,6.6924 -9.6208,6.6924 h -71.655 c -7.0231,0 -10.0332,-2.7452 -10.0332,-9.4061 z" />
    <path
       id="path44"
       style="fill:#1b1918;fill-rule:evenodd"
       d="m 247.5556,394.9274 c -3.9238,1.3776 -6.2584,1.6083 -9.5806,-2.7346 -7.2122,3.3792 -11.9525,1.671 -7.9676,-8.7387 -5.7209,-0.1057 -5.1534,-11.9364 4.7404,-14.4439 -1.4548,-7.5827 6.4579,-10.0077 8.4331,-4.6842 -0.7521,-7.8458 1.6985,-13.8833 6.9746,-20.3097 4.6777,-5.6985 10.0514,-8.7789 15.4329,-8.5425 l 18.6948,4.8985 10.2319,18.6628 2.3605,-0.008 c 0.32,-3.3086 6.3731,-3.7574 7.0013,-0.0244 l 3.5132,-0.009 0.007,26.1533 -12.0625,0.0485 c -2.4052,0.009 -2.5217,0.4757 -0.9777,2.156 2.7241,2.9639 2.6348,7.138 -2.8463,7.5651 -6.1421,0.4788 -7.266,-2.9551 -12.9937,-2.8213 -8.9929,6.4389 -20.9676,8.3242 -30.9611,2.8327 z m 18.7398,-41.0519 c 0.9592,-1.9752 1.3774,-3.7636 0.805,-5.7402 1.2697,1.3762 2.6672,1.8581 4.1925,1.4457 0.5649,0.9759 1.5715,1.2872 3.0359,1.0119 1.146,-0.2154 0.9108,-0.0249 0.5783,1.1566 -0.8572,3.0469 0.4969,4.5975 2.4567,4.9323 -0.4544,0.9584 -0.136,1.6718 0.6316,2.338 l -5.9939,-6e-4 c -0.6134,-4.2145 -2.9276,-5.2041 -5.7061,-5.1437 z" />
    <path
       id="path46"
       style="fill:#1b1918;fill-rule:evenodd"
       d="m 301.8747,292.8308 -4.1476,3.1442 c -0.9663,0.7325 -0.6679,2.4772 1.0035,2.4083 3.7902,-0.1562 2.476,2.5421 1.2041,2.5421 h -5.887 l 0.0995,-5.0267 c -0.2151,-1.4218 -1.0508,-2.0627 -2.2348,-2.2651 l -0.005,-0.8204 -1.1373,-0.0107 -0.003,0.8027 c -1.2019,0.0644 -2.3955,1.3638 -2.4049,2.3148 l -0.0136,1.347 c -2.4738,-0.949 -8.1584,-0.6222 -8.6386,0.3402 l -0.005,3.9203 8.3222,0.0388 c -2.5256,0.2671 -5.0522,0.396 -6.658,1.3485 -0.9337,0.5536 -1.5653,0.8682 -2.1407,0 -1.3819,-2.0849 -3.526,-2.1022 -5.4153,-0.1585 -0.4527,0.4657 -1.0341,0.8572 -2.109,-0.5048 -1.9871,-2.5172 -3.4101,-1.8182 -4.8166,-0.9797 l -6.8236,4.0689 c -0.7943,0.4736 -0.8444,1.5392 0.6021,1.5899 l 6.1546,0.2163 c 1.04,0.6341 2.3953,0.959 4.0651,0.8578 0.5517,0.9839 3.3889,1.3773 7.7216,1.2517 l 2.8877,1.196 c 1.1659,0.4827 0.4666,1.4808 -0.6259,1.6605 -2.1609,0.3555 -4.2843,0.9179 -6.4222,1.3893 -2.6614,0.5865 -3.4316,3.4733 -0.9091,4.7415 l 7.5989,3.8214 c 1.8819,0.9465 1.171,1.8799 0.1338,2.0069 -2.0781,0.2548 -4.023,0.426 -5.8201,0.8028 -1.9857,0.4161 -4.0607,-0.023 -6.0877,0.0669 -1.9885,0.0878 -4.0343,-0.0556 -5.9539,0.4683 -1.8408,0.502 -3.435,1.1794 -4.8353,2.1979 -2.0387,1.4823 -0.042,3.392 -2.8233,5.7274 -1.8233,0.4802 -2.0577,1.0267 -2.3715,1.9202 -0.3977,1.1328 -0.1928,2.2459 0.0312,3.4282 0.4209,0.7541 1.0576,0.9902 1.7915,0.9916 l 1.6231,-0.8762 c 0.6741,-2.8879 3.4327,-4.799 6.2498,-4.7594 3.4328,0.0482 6.8199,0.8941 10.1016,-0.6689 2.0355,-0.9695 3.99,-1.8499 6.5559,-1.4718 3.0229,0.4453 6.0137,-0.65 6.7567,-2.1407 0.4827,-0.9686 0.4975,-1.5168 2.7428,-1.5386 3.7618,-0.0363 6.5389,-2.3077 5.7798,-5.5063 l 9.7566,-0.0944 c 0.9414,-0.009 1.2197,-1.4233 0.5859,-2.1595 l -4.1476,-4.8166 c -1.0891,-0.775 -2.5019,-0.8544 -3.5745,0.4303 -1.404,1.6821 -1.9571,2.2405 -3.4498,0.2387 -1.1511,-1.5443 -2.8273,-1.2203 -4.3483,-0.1338 l -1.8732,1.3379 c -2.1078,-0.5896 -2.1265,-1.1707 -0.2007,-2.0738 l 5.6863,-2.6663 c 2.4633,-1.1551 1.1724,-5.5275 -3.0104,-5.629 -3.5577,-0.0862 -3.1107,-0.8824 0.1338,-1.2042 l 8.0947,-0.8027 c 4.6156,-0.4578 9.0737,-4.4632 6.6228,-6.8905 -1.8904,-1.8723 -1.3549,-1.3292 -0.2676,-2.2745 l 1.5387,-1.338 -0.0669,-1.8731 -4.616,0.0669 z" />
    <g
       id="g48">
      <path
         id="path50"
         style="fill:#1b1918;fill-rule:evenodd"
         d="m 296.8728,336.7094 c 2.1233,4.7563 -1.3398,7.187 -1.5628,11.3177 -0.1188,6.4263 7.2018,7.013 9.1468,0.5569 1.1855,-5.1798 -2.9061,-9.5279 -7.584,-11.8746 z" />
      <path
         id="path52"
         style="fill:#ffffff;fill-opacity:1;fill-rule:evenodd"
         d="m 297.8602,338.1004 c 1.7799,3.9869 -1.4916,5.9594 -1.6786,9.422 -0.1779,5.6221 5.7136,6.1736 7.4391,0.8668 0.9938,-4.3419 -1.8393,-8.3219 -5.7605,-10.2888 z" />
      <path
         id="path54"
         style="fill:#1b1918;fill-rule:evenodd"
         d="m 299.4102,341.885 c 0.7587,2.5491 -1.4862,4.4273 -1.5333,6.6408 -0.0737,3.4427 3.7628,3.4175 4.3834,-0.0543 0.4934,-2.7612 -1.1808,-5.3293 -2.8501,-6.5865 z" />
      <path
         id="path56"
         style="fill:#9a0407;fill-opacity:1;fill-rule:evenodd"
         d="m 299.6824,342.6934 c 0.6217,2.0885 -1.3649,3.7394 -1.4034,5.5527 -0.0601,2.8208 3.0832,2.7352 3.5915,-0.1094 0.4042,-2.262 -0.8204,-4.4132 -2.1881,-5.4433 z" />
    </g>
    <path
       id="path58"
       style="fill:#1db0f5;fill-opacity:1;fill-rule:evenodd"
       d="m 229.103,378.0652 c -1.0631,0.3597 -1.6776,1.8694 -1.0168,3.008 0.6856,1.1806 2.2853,1.2539 3.5226,1.0352 0.4855,-0.0858 0.9888,-1.2858 -0.2312,-1.4483 -0.6362,-0.0844 -1.9202,-0.2728 -1.0943,-1.3199 0.7159,-0.909 -0.5288,-1.4954 -1.1803,-1.275 z" />
    <path
       id="path60"
       style="fill:#d29310;fill-opacity:1;fill-rule:evenodd"
       d="m 288.2297,319.3027 2.7352,-2.0953 c 0.4449,-0.3408 1.2316,-0.3161 1.6812,0.0185 l 2.0351,1.5166 c 0.7769,0.579 0.4619,1.538 -0.0486,1.5322 l -6.2662,-0.0718 c -0.5837,-0.007 -0.9329,-0.2904 -0.1367,-0.9002 z" />
    <path
       id="path62"
       style="fill:#ae0003;fill-opacity:1;fill-rule:evenodd"
       d="m 263.1856,304.9683 4.4562,-2.2758 c 1.0087,-0.5152 2.2425,-0.5602 2.9977,0.307 l 1.6022,1.84 c 0.7062,0.8107 -0.0174,2.1645 -1.0881,2.0594 l -7.674,-0.7523 c -1.5481,-0.1519 -1.3469,-0.9938 -0.294,-1.1783 z" />
    <path
       id="path64"
       style="fill:#d29310;fill-opacity:1;fill-rule:evenodd"
       d="m 273.2947,305.9662 2.3643,-2.0279 c 0.9314,-0.799 1.5402,-0.9879 2.3617,-0.2088 l 2.3857,2.2642 c 1.0213,0.9691 0.8528,1.7715 -0.6334,1.8103 l -5.6121,0.1483 c -1.5289,0.0402 -1.9096,-1.4452 -0.8662,-1.9861 z" />
    <path
       id="path66"
       style="fill:#ffffff;fill-rule:evenodd"
       d="m 289.2475,296.9246 h 1.0687 c -0.1171,2.1932 2.45,1.9349 2.211,0 h 0.6633 v 3.9798 h -3.943 z" />
    <path
       id="path68"
       style="fill:#004600;fill-opacity:1;fill-rule:evenodd"
       d="m 239.3348,374.8099 c -7.297,-10.1991 2.3944,-13.0524 3.1564,-5.3111 5.3424,-4.4837 7.6337,-24.3166 13.4394,-22.7346 -0.2644,-6.9331 5.3515,-9.4803 14.7023,-7.0703 2.9255,0.7539 5.0285,2.9362 7.7465,5.5781 3.3317,3.2384 5.6513,7.8378 8.1335,13.3164 l -2.2825,6.3737 -4.902,-3.9588 0.6518,-2.5736 c -0.8882,-0.9825 -1.3149,-2.3078 -1.0603,-3.2907 -3.0907,0.8228 -3.9109,-1.2239 -1.1754,-5.8783 -0.8091,-3.0036 -4.6697,2.3748 -4.8261,-2.2998 -3.3477,0.1383 -4.8181,-0.5047 -5.9567,-2.3433 -0.2807,0.6313 -0.91,0.1294 -1.1904,0.7607 -0.7718,2.1043 0.6124,8.3157 -4.2993,9.1125 3.3906,-0.5506 8.1345,2.9733 8.9798,5.3553 l 3.9636,11.1719 c 0.5373,1.5136 0.8551,2.9056 2.172,3.9129 2.8653,-7.215 8.2242,-2.6624 4.244,3.1278 8.1813,-3.7145 7.9481,5.4444 0.5958,4.594 8.018,1.9985 2.6136,12.9242 -2.8517,5.4428 -0.2446,3.3678 -1.4964,4.2228 -4.4307,3.816 1.6031,-4.9134 1.2073,-8.8682 -2.6126,-10.5565 -8.167,-3.6102 -18.0756,-3.1421 -25.4214,2.5957 -3.6775,2.8725 -1.6506,6.1105 0.828,8.6857 -4.5298,1.422 -6.426,-1.1422 -6.0334,-5.4217 -4.8746,5.1804 -11.8549,-3.5297 -2.9304,-6.1625 -10.1935,-1.0951 -6.0266,-9.7812 1.3598,-6.2423 z" />
    <path
       id="path70"
       style="fill:#1b1918;fill-rule:evenodd"
       d="m 253.3541,374.6135 0.1903,2.6002 c -3.6605,-0.004 -6.1958,1.2024 -9.0692,3.4248 1.7758,-3.2085 5.074,-5.5658 8.8789,-6.025 z" />
    <path
       id="path72"
       style="fill:#1b1918;fill-rule:evenodd"
       d="m 283.4185,359.2004 c -0.576,0.2826 -1.1839,0.4241 -1.499,1.1464 0.1291,0.9858 0.6622,0.8638 1.1406,0.6225 0.2667,-0.3116 0.3529,-0.8466 0.3584,-1.7689 z" />
    <path
       id="path74"
       style="fill:#ae0003;fill-opacity:1;fill-rule:evenodd"
       d="m 295.2507,322.0139 c -0.6877,0 -0.6464,-0.4833 -0.1827,-0.9245 l 3.7384,-3.559 c 0.6446,-0.6138 1.1236,-0.6305 1.7707,-0.0213 l 3.7848,3.5639 c 0.4648,0.4373 0.6501,0.9358 -0.0351,0.9358 l -9.0761,0.005 z" />
    <path
       id="path76"
       style="fill:#ffffff;fill-rule:evenodd"
       d="m 280.3666,298.1982 h 7.7017 v 2.7062 h -2.3584 c -0.1296,-2.0545 -2.7335,-1.9624 -3.0217,0 h -2.3216 z" />
    <path
       id="path78"
       style="fill:#ffffff;fill-rule:evenodd"
       d="m 291.2399,294.5663 c 1.0946,0 1.9874,0.6956 1.9874,1.5489 0,0.0327 -0.002,0.0645 -0.005,0.0969 h -3.9653 c -0.002,-0.0324 -0.005,-0.0642 -0.005,-0.0969 0,-0.8533 0.8928,-1.5489 1.9878,-1.5489 z" />
    <g
       id="g80">
      <path
         id="path82"
         style="fill:#1b1918;fill-rule:evenodd"
         d="m 262.9749,319.8307 0.8051,-0.6542 -0.095,-3.2224 c -0.9755,0.072 -1.987,-1.2584 -1.9926,-2.2679 l -0.0206,-3.4801 c -0.007,-1.1548 1.8128,-1.2089 2.2177,-0.3553 -0.0557,-2.3517 2.8919,-2.1668 2.9315,-0.6815 l 0.0471,1.7622 c 1.1372,-1.6413 2.5823,-0.2076 2.5673,2.1561 -0.0141,2.2747 -0.3756,3.2259 -1.4767,3.2668 l 0.0739,2.4159 c 0.9579,0.2205 0.8731,0.9593 0.1228,1.0628 l -5.1805,-0.002 z" />
      <path
         id="path84"
         style="fill:#009035;fill-rule:evenodd"
         d="m 264.555,319.2522 -0.1008,-3.6904 c -1.1484,-0.1759 -1.951,-0.7309 -1.9559,-1.9679 l -0.0113,-2.725 c -0.002,-0.6405 1.1553,-1.0526 1.1529,-0.0904 l -0.006,2.3202 c -0.0393,0.738 0.4505,0.9652 0.7515,0.0617 l 0.0405,-3.35 c 0.0108,-0.8946 1.5772,-1.0262 1.5772,-0.0132 l -0.001,4.169 c 0,0.8128 1.0258,0.7832 1.0536,-0.3212 l 0.0395,-1.5688 c 0.0217,-0.8557 1.396,-1.2426 1.3967,0.008 l 0.001,2.356 c 2e-4,0.5818 -0.8296,1.4894 -1.3748,1.3464 l 0.0337,3.3764 -2.5964,0.0894 z" />
    </g>
    <path
       id="path86"
       style="fill:#009035;fill-rule:evenodd"
       d="m 257.1253,224.6029 c 1.4658,2.8301 4.6012,3.1487 4.9901,6.6792 0.0944,3.7659 -0.8608,4.6134 -2.6603,2.2757 -0.7713,-1.0021 -1.3802,-2.1268 -1.7977,-3.3168 -0.6594,-1.8788 -0.8615,-3.7588 -0.5321,-5.6381 z" />
    <path
       id="path88"
       style="fill:#009035;fill-rule:evenodd"
       d="m 261.4853,238.3427 c -0.0836,-0.4516 0.0334,-0.9031 -0.0502,-1.3547 0.9754,-2.2907 2.5676,-4.3807 5.0173,-5.8703 1.3964,-0.9615 2.6337,-0.811 3.763,0.1004 1.9902,1.6557 3.4285,4.3149 5.3686,5.7197 -2.0299,0.5176 -3.9076,-0.5675 -5.6696,-2.8598 -1.1373,-1.5721 -2.2076,-1.8063 -3.2111,-0.7025 -1.2461,1.9401 -3.1694,3.5626 -5.218,4.9672 z" />
    <path
       id="path90"
       style="fill:#009035;fill-rule:evenodd"
       d="m 249.1265,237.3038 c 0.8867,-1.1336 1.3935,-2.3437 2.0906,-3.5155 1.6183,-2.3032 4.394,-0.8468 7.3355,1.1463 -3.3803,-0.8345 -6.554,-0.2608 -9.4261,2.3692 z" />
    <path
       id="path92"
       style="fill:#009035;fill-opacity:1;fill-rule:evenodd;stroke:#000000;stroke-opacity:1"
       d="m 265.5978,251.991 0.5014,1.2576 c -0.1627,1.6103 1.1178,2.222 1.1178,2.222 0,0 1.1366,0.537 2.598,-0.1343 1.0277,-0.4716 1.9895,-1.0794 3.1244,-1.6726 h 3.1087 c 0.7223,0.3023 1.365,0.6589 1.926,0.6589 0.9743,0 2.923,-0.537 3.0448,-0.1342 0.1215,0.4024 -0.9743,1.476 -1.7053,1.476 -0.7307,0 -1.218,-0.4023 -1.4613,-0.1342 -0.2437,0.2685 -0.2437,1.074 -0.9744,1.074 -0.731,0 -1.0961,0.6709 -1.949,1.2076 -0.8525,0.537 -1.3395,0.537 -1.3395,0.537 0,0 2.0705,0.2685 2.923,0.9394 0.9744,-0.1342 1.218,-0.2685 1.9487,0 0.7306,0.2685 1.3398,0.2685 1.4617,0.8052 0.1218,0.537 0.1218,1.4764 -0.7311,0.8055 -0.8525,-0.6713 -1.5831,-0.4027 -2.6793,-0.6713 -1.0962,-0.2681 -2.1923,-0.5366 -3.2885,-0.4023 -1.0962,0.1342 -1.4617,-0.5371 -2.6793,-0.6713 -1.218,-0.1343 -1.7054,0.9394 -3.4104,0.9394 -1.7053,0 -2.436,-0.6709 -3.1666,0 0,0 1.0961,0.1342 1.4613,0.8055 0,0 1.8272,0.2682 2.436,0.9394 0.6092,0.6709 0.8933,1.4315 -0.2437,0.8948 -1.1366,-0.537 -2.517,0.7159 -3.41,-0.0896 -0.8933,-0.8052 -1.0556,-0.7155 -1.8676,-0.7155 -0.8121,0 -1.1367,0.447 -0.9744,0.8944 0.1623,0.4474 0.2437,1.2529 -0.406,1.074 -0.6493,-0.1792 -0.3246,-0.3581 -0.406,-1.074 -0.081,-0.7155 -0.6437,-0.9841 -1.2176,-0.9841 -0.4874,0 -1.8677,1.0737 -2.8421,0.8948 0,0 -1.0556,0.4474 -2.03,0.0893 -0.9743,-0.3578 -1.4613,-0.3578 -0.7306,-0.8944 0.7306,-0.5371 1.0557,-0.6267 1.705,-0.6267 0.6496,0 0.812,0.1793 1.2993,-0.447 0.487,-0.6267 0.5684,-0.8055 0.5684,-0.8055 0,0 -0.8121,-0.1789 -1.4617,0.0896 -0.6493,0.2685 -1.4614,0.7159 -2.7607,0.1789 -1.299,-0.5371 -1.1367,-0.4474 -2.1923,-0.4474 -1.0554,0 -1.5427,0.7159 -2.8417,0.537 0,0 -1.3803,0 -2.03,0.2681 -0.6497,0.2686 -0.893,0.5371 -1.9487,0.4474 -1.0556,-0.0892 -0.406,0.2685 -1.624,0.6263 -1.218,0.3582 -1.1366,-0.8944 -0.5683,-1.2525 0.5683,-0.3578 0.9743,-0.716 1.9487,-0.8052 0.9743,-0.0896 1.4616,-0.6263 2.2736,-0.3578 0.6494,0 1.2177,-0.6266 1.2177,-0.6266 v 0 l -0.081,-0.2682 v 0 c 0,0 -1.0557,-0.6266 -1.3803,-0.9844 -0.3247,-0.3577 -1.218,0.1789 -1.8677,-0.1789 -0.6493,-0.3577 -0.487,-0.8948 -0.487,-0.8948 0,0 -1.3803,-0.1788 -2.03,-0.3577 -0.6497,-0.1789 -0.9743,-0.4474 -1.218,-0.6263 -0.2433,-0.1793 0.325,-0.8948 0.9743,-0.8948 0.6497,0 1.2994,0.3578 2.3547,0.3578 1.0557,0 0.731,0.0896 1.543,-0.5367 0.8117,-0.6266 2.0297,-0.2685 3.004,-0.1792 0.9743,0.0896 1.4617,0.4474 2.436,1.0736 v 0 0 c 0.9743,0.6267 2.3547,0.716 3.0043,0.8948 0.6494,0.1789 0.812,0.0897 0.812,0.0897 0,0 5.8073,-0.3913 5.32,-2.3597 l 0.0991,-1.86 5.7922,0.009 z m 3.2414,5.9104 c 0,0 1.624,-0.2685 2.1114,-0.8948 0.487,-0.6263 1.299,-1.8788 2.0296,-1.9684 0.731,-0.0893 1.7864,-0.1789 2.7607,0.1788 0,0 -1.5427,0.9845 -2.3547,1.5211 -0.812,0.537 -1.7863,1.3422 -2.8416,1.3422 -1.0557,0 -1.2994,0.1789 -1.7054,-0.1789 z m -15.833,0.1789 c 0,0 -1.2993,0.7159 -2.1923,0.4474 -0.8934,-0.2685 -1.5427,-1.0737 -2.2737,-1.3422 -0.7307,-0.2681 -1.3803,-0.3578 -1.8673,-0.8052 -0.4874,-0.4473 -0.5684,-0.5366 -1.3804,-0.8051 0,0 1.299,0.1789 1.8674,0 0.5683,-0.1789 0.9743,-0.537 1.9486,0.3578 0.9744,0.8947 1.7054,1.521 2.5174,1.6999 0.8116,0.1789 1.3803,0.4474 1.3803,0.4474 z" />
    <path
       id="path94"
       style="fill:#1b1918;fill-rule:evenodd"
       d="m 261.9894,238.4884 a 7.3587,7.795 0 0 1 7.3587,7.795 7.3587,7.795 0 1 1 -7.3587,-7.795 z" />
    <path
       id="path96"
       style="fill:#f49325;fill-rule:evenodd"
       d="m 262.127,240.8542 a 5.2212,5.4292 0 0 1 5.2212,5.4292 5.2212,5.4292 0 1 1 -5.2212,-5.4292 z" />
    <path
       id="path98"
       style="fill:#ffffff;fill-rule:evenodd"
       d="m 262.8183,243.513 a 1.0785,1.3827 20.7787 0 1 0.5179,1.6754 1.0785,1.3827 20.7787 1 1 -0.5179,-1.6754 z" />
    <path
       id="path100"
       style="fill:#ffffff;fill-rule:evenodd"
       d="m 259.0347,247.0416 c 2.1427,1.1722 4.4167,1.1926 6.5605,0.4247 -0.2554,1.3606 -2.0585,2.4193 -3.8914,2.3658 -1.9876,-0.1066 -2.6461,-1.207 -2.6691,-2.7905 z" />
    <path
       id="path102"
       style="fill:#ffffff;fill-rule:evenodd"
       d="m 220.5371,280.1755 h 3.7202 c -0.1105,1.7294 -0.6772,3.0725 -1.703,4.0283 -1.0228,0.9533 -2.4081,1.4313 -4.1565,1.4313 -1.9604,0 -3.5019,-0.6183 -4.6238,-1.8514 -1.1248,-1.233 -1.6858,-2.923 -1.6858,-5.0728 0,-2.1405 0.5553,-3.8274 1.6687,-5.0667 1.1138,-1.2362 2.6295,-1.8541 4.5502,-1.8541 1.7711,0 3.1621,0.4598 4.1791,1.3793 1.0146,0.9165 1.584,2.2317 1.7059,3.9371 h -3.7598 c -0.0567,-0.673 -0.258,-1.1784 -0.6064,-1.5225 -0.3484,-0.341 -0.8388,-0.5117 -1.4706,-0.5117 -0.7707,0 -1.3456,0.3016 -1.7311,0.9043 -0.3852,0.606 -0.5777,1.5165 -0.5777,2.7343 0,1.1968 0.2038,2.101 0.6145,2.713 0.4079,0.612 1.0086,0.9196 1.802,0.9196 0.6064,0 1.0911,-0.1888 1.448,-0.5633 0.3571,-0.3744 0.5663,-0.9073 0.6261,-1.6047 z m 5.3351,-8.0444 h 3.9271 v 8.0994 c 0,0.7489 0.1443,1.2818 0.4363,1.5985 0.2888,0.3197 0.7761,0.4779 1.4561,0.4779 0.6631,0 1.139,-0.1551 1.4222,-0.4689 0.2863,-0.3106 0.428,-0.8495 0.428,-1.6075 v -8.0994 h 3.9269 v 8.4282 c 0,1.6473 -0.493,2.9047 -1.482,3.7727 -0.9884,0.8677 -2.4194,1.3031 -4.2951,1.3031 -1.887,0 -3.329,-0.4354 -4.3262,-1.3062 -0.9947,-0.8709 -1.4933,-2.1286 -1.4933,-3.7696 z m 13.8861,13.1386 v -13.1386 h 3.9268 v 9.6491 h 5.338 v 3.4895 z m 10.931,0 v -13.1386 h 4.0005 v 13.1386 z m 10.2339,-4.4944 h 2.465 l -1.2183,-4.549 z m -5.0463,4.4944 4.3011,-13.1386 h 3.975 l 4.2981,13.1386 h -3.8931 l -0.456,-1.7385 h -3.8929 l -0.4731,1.7385 z m 21.6267,-5.0942 h 3.7202 c -0.1106,1.7294 -0.6772,3.0725 -1.7031,4.0283 -1.0227,0.9533 -2.408,1.4313 -4.1564,1.4313 -1.9605,0 -3.5019,-0.6183 -4.6236,-1.8514 -1.1251,-1.233 -1.6861,-2.923 -1.6861,-5.0728 0,-2.1405 0.5554,-3.8274 1.6688,-5.0667 1.1137,-1.2362 2.6294,-1.8541 4.5502,-1.8541 1.7711,0 3.162,0.4598 4.1791,1.3793 1.0145,0.9165 1.584,2.2317 1.7059,3.9371 h -3.7599 c -0.0567,-0.673 -0.2579,-1.1784 -0.6063,-1.5225 -0.3484,-0.341 -0.8388,-0.5117 -1.4704,-0.5117 -0.7707,0 -1.3458,0.3016 -1.7311,0.9043 -0.3855,0.606 -0.578,1.5165 -0.578,2.7343 0,1.1968 0.2039,2.101 0.6146,2.713 0.4079,0.612 1.0086,0.9196 1.802,0.9196 0.6063,0 1.091,-0.1888 1.4479,-0.5633 0.3572,-0.3744 0.5667,-0.9073 0.6262,-1.6047 z m 9.2083,0.5998 h 2.465 l -1.2186,-4.549 z m -5.0462,4.4944 4.301,-13.1386 h 3.975 l 4.2982,13.1386 h -3.8931 l -0.4561,-1.7385 h -3.8928 l -0.4731,1.7385 z m 13.699,0 v -13.1386 h 3.7259 l 3.4285,6.1109 c 0.1046,0.1707 0.2179,0.4142 0.337,0.7308 0.1188,0.3138 0.2438,0.6942 0.3767,1.1418 -0.034,-0.2313 -0.0567,-0.487 -0.0737,-0.7674 -0.017,-0.28 -0.0252,-0.6179 -0.0252,-1.0167 v -6.1994 h 3.7426 v 13.1386 h -3.7426 l -3.4285,-6.0653 c -0.1049,-0.1797 -0.2211,-0.4326 -0.3456,-0.7583 -0.1247,-0.3257 -0.2494,-0.7004 -0.377,-1.1236 0.0397,0.2315 0.0652,0.475 0.0822,0.7279 0.017,0.2526 0.0256,0.6058 0.0256,1.0655 v 6.1538 z" />
    <path
       id="path104"
       style="fill:#ffffff;fill-rule:evenodd"
       d="m 227.7984,426.2213 c -0.3765,-0.3359 -0.7611,-0.5828 -1.158,-0.7387 -0.3946,-0.1559 -0.8178,-0.235 -1.2691,-0.235 -0.9252,0 -1.6622,0.2775 -2.2127,0.83 -0.5488,0.5547 -0.824,1.2977 -0.824,2.2311 0,0.9128 0.2551,1.6376 0.7653,2.1742 0.51,0.5363 1.2065,0.8036 2.0892,0.8036 0.502,0 0.9677,-0.085 1.3989,-0.2531 0.4311,-0.1681 0.83,-0.419 1.1985,-0.7552 l -0.0122,1.9032 c -0.3949,0.2347 -0.8099,0.4068 -1.243,0.5222 -0.4334,0.1153 -0.8887,0.172 -1.3666,0.172 -1.3847,0 -2.5203,-0.4291 -3.407,-1.2895 -0.8886,-0.8603 -1.332,-1.9536 -1.332,-3.2774 0,-1.3201 0.4454,-2.4091 1.334,-3.2675 0.8907,-0.8583 2.0364,-1.2875 3.4416,-1.2875 0.4697,0 0.9249,0.0485 1.3623,0.1477 0.4394,0.0992 0.8725,0.2512 1.2997,0.4575 z m 10.618,2.0993 c 0,0.6217 -0.1154,1.2087 -0.3461,1.7615 -0.2328,0.5544 -0.565,1.0403 -1.0001,1.4595 -0.4516,0.4312 -0.9595,0.7611 -1.5245,0.9899 -0.5646,0.2288 -1.1497,0.3441 -1.7552,0.3441 -0.5303,0 -1.0485,-0.089 -1.5565,-0.2693 -0.5082,-0.18 -0.974,-0.4391 -1.3969,-0.7752 -0.5465,-0.4332 -0.9638,-0.9536 -1.2552,-1.5588 -0.2894,-0.6052 -0.4351,-1.2552 -0.4351,-1.9517 0,-0.6253 0.1154,-1.2104 0.3441,-1.7592 0.2288,-0.5465 0.5647,-1.0343 1.008,-1.4615 0.4354,-0.4232 0.9394,-0.7512 1.5143,-0.9839 0.5768,-0.2327 1.1682,-0.3501 1.7773,-0.3501 0.6055,0 1.1926,0.1174 1.7635,0.3501 0.5728,0.2327 1.0768,0.5607 1.5162,0.9839 0.4394,0.4272 0.7733,0.915 1.0021,1.4658 0.2287,0.5485 0.3441,1.1336 0.3441,1.7549 z m -4.6259,2.901 c 0.7878,0 1.4375,-0.2752 1.9497,-0.828 0.5122,-0.5505 0.7673,-1.2407 0.7673,-2.073 0,-0.8217 -0.2593,-1.5142 -0.7775,-2.0749 -0.5182,-0.5607 -1.1639,-0.8422 -1.9395,-0.8422 -0.7874,0 -1.4391,0.2795 -1.9573,0.8402 -0.5185,0.5587 -0.7775,1.2512 -0.7775,2.0769 0,0.8382 0.2551,1.5327 0.7653,2.0792 0.51,0.5485 1.1659,0.8218 1.9695,0.8218 z m 6.1929,1.4233 v -8.6828 h 1.8564 v 7.1059 h 2.9656 v 1.5769 z m 5.9882,0 v -8.6828 h 1.8564 v 3.4821 h 3.7652 v -3.4821 h 1.8564 v 8.6828 h -1.8564 v -3.6298 h -3.7652 v 3.6298 z m 16.8817,-8.6828 v 5.4011 c 0,1.1784 -0.3098,2.0588 -0.9315,2.6399 -0.6213,0.5811 -1.5545,0.8725 -2.8057,0.8725 -1.2694,0 -2.2127,-0.2914 -2.8341,-0.8725 -0.6216,-0.5811 -0.9312,-1.4615 -0.9312,-2.6399 v -5.4011 h 1.8443 v 5.1117 c 0,0.7146 0.1578,1.2532 0.4736,1.6155 0.3178,0.3625 0.7895,0.5425 1.419,0.5425 0.6316,0 1.1115,-0.1823 1.4355,-0.5445 0.3237,-0.3643 0.4859,-0.9029 0.4859,-1.6135 v -5.1117 z m 6.2047,5.379 -0.9717,-2.806 c -0.0283,-0.0828 -0.0629,-0.2245 -0.1074,-0.4269 -0.0425,-0.2004 -0.089,-0.4476 -0.1355,-0.741 -0.0527,0.2812 -0.1012,0.5324 -0.148,0.7571 -0.0484,0.2226 -0.083,0.3725 -0.1071,0.4474 l -0.9374,2.7694 z m -5.5267,3.3038 3.3038,-8.6828 h 2.1237 l 3.3503,8.6828 h -2.1115 l -0.7064,-1.8442 h -3.3625 l -0.6055,1.8442 z m 16.4724,-6.4236 c -0.3764,-0.3359 -0.7611,-0.5828 -1.1579,-0.7387 -0.3946,-0.1559 -0.8178,-0.235 -1.2691,-0.235 -0.9252,0 -1.6622,0.2775 -2.2127,0.83 -0.5488,0.5547 -0.824,1.2977 -0.824,2.2311 0,0.9128 0.2551,1.6376 0.7653,2.1742 0.51,0.5363 1.2064,0.8036 2.0892,0.8036 0.502,0 0.9677,-0.085 1.3989,-0.2531 0.4311,-0.1681 0.8299,-0.419 1.1984,-0.7552 l -0.0121,1.9032 c -0.3949,0.2347 -0.8099,0.4068 -1.243,0.5222 -0.4335,0.1153 -0.8887,0.172 -1.3666,0.172 -1.3847,0 -2.5203,-0.4291 -3.407,-1.2895 -0.8886,-0.8603 -1.332,-1.9536 -1.332,-3.2774 0,-1.3201 0.4453,-2.4091 1.334,-3.2675 0.8906,-0.8583 2.0364,-1.2875 3.4415,-1.2875 0.4697,0 0.925,0.0485 1.3624,0.1477 0.4393,0.0992 0.8725,0.2512 1.2997,0.4575 z m 6.2232,3.1198 -0.9717,-2.806 c -0.0283,-0.0828 -0.0629,-0.2245 -0.1074,-0.4269 -0.0425,-0.2004 -0.089,-0.4476 -0.1355,-0.741 -0.0527,0.2812 -0.1012,0.5324 -0.148,0.7571 -0.0485,0.2226 -0.083,0.3725 -0.1071,0.4474 l -0.9375,2.7694 z m -5.5267,3.3038 3.3038,-8.6828 h 2.1237 l 3.3503,8.6828 h -2.1115 l -0.7064,-1.8442 h -3.3625 l -0.6055,1.8442 z m 9.6908,0 v -8.6828 h 1.9273 l 3.8443,5.053 c 0.1095,0.1418 0.2308,0.3422 0.3643,0.6012 0.1318,0.2591 0.2693,0.565 0.413,0.9171 -0.0445,-0.2571 -0.0768,-0.5123 -0.095,-0.7651 -0.0204,-0.2532 -0.0303,-0.5689 -0.0303,-0.9496 v -4.8566 h 1.7734 v 8.6828 h -1.8202 l -3.9515,-5.148 c -0.1094,-0.1418 -0.2307,-0.3422 -0.3602,-0.6012 -0.1318,-0.2591 -0.2693,-0.569 -0.4173,-0.9292 0.0445,0.2488 0.0771,0.502 0.0952,0.7571 0.0202,0.2548 0.0304,0.5749 0.0304,0.9635 v 4.9578 z" />
    <g
       id="g106">
      <path
         id="path108"
         style="fill:#1b1918;fill-rule:evenodd"
         d="m 220.2797,376.2755 a 5.3062,5.3062 0 0 1 5.3062,5.3062 5.3062,5.3062 0 1 1 -5.3062,-5.3062 z" />
      <path
         id="path110"
         style="fill:#0523f8;fill-opacity:1;fill-rule:evenodd"
         d="m 220.2795,380.095 a 1.4866,1.4866 0 0 1 1.4866,1.4866 1.4866,1.4866 0 1 1 -1.4866,-1.4866 z" />
      <path
         id="path112"
         style="fill:#ffffff;fill-rule:evenodd"
         d="m 220.2797,385.8812 c -2.3683,0 -4.2995,-1.9313 -4.2995,-4.2993 0,-2.3684 1.9312,-4.2996 4.2995,-4.2996 2.3681,0 4.2996,1.9312 4.2996,4.2996 0,2.368 -1.9315,4.2993 -4.2996,4.2993 z m -2e-4,-2.2056 c -1.1534,0 -2.094,-0.9407 -2.094,-2.094 0,-1.1534 0.9406,-2.094 2.094,-2.094 1.1533,0 2.0939,0.9406 2.0939,2.094 0,1.1533 -0.9406,2.094 -2.0939,2.094 z" />
    </g>
    <path
       id="path114"
       style="fill:#1b1918;fill-rule:evenodd"
       d="m 301.71,385.5202 a 5.3062,5.3062 0 0 1 5.3062,5.3061 5.3062,5.3062 0 1 1 -5.3062,-5.3061 z" />
    <path
       id="path116"
       style="fill:#0523f8;fill-opacity:1;fill-rule:evenodd"
       d="m 301.7098,389.3396 a 1.4866,1.4866 0 0 1 1.4866,1.4866 1.4866,1.4866 0 1 1 -1.4866,-1.4866 z" />
    <path
       id="path118"
       style="fill:#ffffff;fill-rule:evenodd"
       d="m 301.71,395.1258 c -2.3683,0 -4.2995,-1.9313 -4.2995,-4.2993 0,-2.3683 1.9312,-4.2996 4.2995,-4.2996 2.3681,0 4.2996,1.9313 4.2996,4.2996 0,2.368 -1.9315,4.2993 -4.2996,4.2993 z m -2e-4,-2.2056 c -1.1534,0 -2.094,-0.9407 -2.094,-2.094 0,-1.1533 0.9406,-2.094 2.094,-2.094 1.1533,0 2.0939,0.9407 2.0939,2.094 0,1.1533 -0.9406,2.094 -2.0939,2.094 z" />
    <path
       id="path120"
       style="fill:#fe6400;fill-opacity:1;fill-rule:evenodd"
       d="m 303.6081,293.4995 c 1.0143,-0.6401 2.0872,0.5604 1.0177,1.2002 l -2.3225,1.3898 c -0.8441,0.5051 -0.8288,1.4111 0.0131,1.643 3.325,0.9156 2.7433,4.2828 -0.2413,5.5156 -3.9169,1.6175 -9.0467,1.5939 -13.3934,1.7773 -2.9551,0.0545 -2.7912,2.8327 -0.1479,3.1125 4.0189,0.4255 5.6982,2.7629 3.0172,4.1465 l -5.912,3.0512 c -1.7297,0.8927 -1.8059,2.2629 0.9992,3.3293 -2.3289,1.3958 -1.6551,2.6938 1.9041,2.6694 6.3252,-0.0437 7.1725,4.8974 0.6174,5.6237 -6.1827,0.6848 -3.3965,2.9168 -6.5719,3.0078 l -4.5283,0.1301 c -3.1284,0.0896 -5.1143,3.2281 -11.7474,2.3284 -5.051,-0.6852 -8.7962,0.9451 -11.4409,5.3192 -1.5942,2.6368 -1.9755,-3.5192 0.021,-3.3182 1.0644,-0.0692 1.9998,-0.5483 2.7383,-1.8777 1.9658,-3.5399 5.0096,-6.0956 7.6345,-5.959 7.9982,0.417 6.9854,-0.9147 14.7512,-0.7957 2.287,0.0349 5.26,-2.5716 1.7892,-4.5896 l -6.7283,-3.9118 c -2.0678,-1.2024 -1.8008,-2.0423 0.5477,-2.66 l 5.2809,-1.3887 c 2.1799,-0.5732 3.5238,-2.5875 1.9168,-2.9925 -1.2087,-0.3048 -1.1605,-1.042 -0.3129,-1.4865 0.9141,-0.4794 0.7293,-1.0732 -0.313,-1.7995 -1.3634,-0.9504 -1.0114,-1.9615 0.3912,-2.7034 2.5421,-1.3345 5.2696,-2.1583 8.2738,-2.1035 l 8.5666,0.1564 c 3.2779,0.0598 4.3236,-3.7142 1.7535,-4.2599 -2.0931,-0.4445 -3.2911,-0.9468 -1.4406,-2.1143 z" />
    <path
       id="path122"
       style="fill:#ffffff;fill-rule:evenodd"
       d="m 291.4586,296.6298 a 0.7002,0.7002 0 0 1 0.7001,0.7002 0.7002,0.7002 0 1 1 -0.7001,-0.7002 z" />
    <g
       id="g124">
      <path
         id="path126"
         style="fill:#1b1918;fill-rule:evenodd"
         d="m 263.469,328.9051 c 0.6939,-0.3053 1.3501,-0.7385 2.0922,-0.8963 0.6894,-0.1469 1.5015,-0.3464 2.1155,-3e-4 0.8963,0.5057 2.092,1.6123 1.8088,2.6022 -0.256,0.8943 -1.2078,0.8835 -2.5634,0.0326 -0.7441,-0.4672 -2.1395,-0.8221 -2.6365,0.0241 -0.5901,1.0049 -1.4023,0.8271 -1.7399,0.3421 -0.5706,-0.8195 0.0613,-1.7249 0.9233,-2.1044 z" />
      <path
         id="path128"
         style="fill:#1b1918;fill-rule:evenodd"
         d="m 270.6793,330.2305 a 0.4643,0.8239 -72.4258 0 1 0.7271,0.6708 0.4643,0.8239 -72.4258 1 1 -0.7271,-0.6708 z" />
      <path
         id="path130"
         style="fill:#1b1918;fill-rule:evenodd"
         d="m 269.9868,329.16 a 0.3617,0.6419 -83.4566 0 1 0.6559,0.4045 0.3617,0.6419 -83.4566 1 1 -0.6559,-0.4045 z" />
      <path
         id="path132"
         style="fill:#1b1918;fill-rule:evenodd"
         d="m 269.3088,328.4699 a 0.3077,0.546 -83.4566 0 1 0.558,0.3442 0.3077,0.546 -83.4566 1 1 -0.558,-0.3442 z" />
      <path
         id="path134"
         style="fill:#1b1918;fill-rule:evenodd"
         d="m 268.6573,327.8432 a 0.251,0.4455 -83.4566 0 1 0.4552,0.2808 0.251,0.4455 -83.4566 1 1 -0.4552,-0.2808 z" />
      <path
         id="path136"
         style="fill:#1b1918;fill-rule:evenodd"
         d="m 267.8749,327.4435 a 0.251,0.4455 86.5468 0 1 0.4971,0.1975 0.251,0.4455 86.5468 1 1 -0.4971,-0.1975 z" />
    </g>
    <g
       id="g138">
      <path
         id="path140"
         style="fill:#1b1918;fill-rule:evenodd"
         d="m 284.4397,327.2083 c 0.5097,-0.2378 1.073,-0.2858 1.5238,-0.6228 0.4189,-0.313 1.1944,-0.4027 1.3016,-0.9144 0.1562,-0.7474 -0.3565,-2.2229 -1.0473,-2.5491 -0.6241,-0.2946 -0.871,0.2425 -1.0591,1.4151 -0.1033,0.6436 -0.5881,0.9035 -1.3032,0.7669 -0.8494,-0.1622 -1.1476,0.6451 -1.0422,1.0704 0.1784,0.7189 0.993,1.1296 1.6264,0.8339 z" />
      <path
         id="path142"
         style="fill:#1b1918;fill-rule:evenodd"
         d="m 286.3562,322.4705 a 0.4118,0.645 34.7535 0 0 0.0973,-0.7896 0.4118,0.645 34.7535 1 0 -0.0973,0.7896 z" />
      <path
         id="path144"
         style="fill:#1b1918;fill-rule:evenodd"
         d="m 287.2709,323.0972 a 0.3163,0.4477 43.4541 0 0 0.0151,-0.5263 0.3163,0.4477 43.4541 1 0 -0.0151,0.5263 z" />
      <path
         id="path146"
         style="fill:#1b1918;fill-rule:evenodd"
         d="m 287.7683,323.9545 a 0.2899,0.4056 53.752 0 0 0.2173,-0.4706 0.2899,0.4056 53.752 1 0 -0.2173,0.4706 z" />
      <path
         id="path148"
         style="fill:#1b1918;fill-rule:evenodd"
         d="m 287.9133,325.0429 a 0.2664,0.3659 -82.6626 0 0 0.4085,-0.2061 0.2664,0.3659 -82.6626 1 0 -0.4085,0.2061 z" />
      <path
         id="path150"
         style="fill:#1b1918;fill-rule:evenodd"
         d="m 287.8786,325.9505 a 0.2301,0.3334 -75.7162 0 0 0.3809,-0.1395 0.2301,0.3334 -75.7162 1 0 -0.3809,0.1395 z" />
    </g>
    <g
       id="g152">
      <path
         id="path154"
         style="fill:#1b1918;fill-rule:evenodd"
         d="m 283.4642,313.6333 c 0.1232,-0.9509 1.0905,-2.6425 1.6948,-2.7337 0.7549,-0.1138 2.7604,0.2526 3.0469,0.9604 0.2589,0.6395 0.2867,0.7406 -0.8859,0.9261 -1.3879,0.22 -1.7264,0.8425 -1.6305,1.5639 0.1138,0.8568 -1.0664,1.0838 -1.4848,0.9543 -0.7076,-0.2187 -0.8303,-0.9778 -0.7405,-1.671 z" />
      <path
         id="path156"
         style="fill:#1b1918;fill-rule:evenodd"
         d="m 289.1704,311.8351 a 0.4118,0.645 58.4935 0 1 0.7938,-0.0524 0.4118,0.645 58.4935 1 1 -0.7938,0.0524 z" />
      <path
         id="path158"
         style="fill:#1b1918;fill-rule:evenodd"
         d="m 288.3669,310.8865 a 0.3163,0.4477 49.7929 0 1 0.5264,0.0147 0.3163,0.4477 49.7929 1 1 -0.5264,-0.0147 z" />
      <path
         id="path160"
         style="fill:#1b1918;fill-rule:evenodd"
         d="m 287.284,310.3669 a 0.2899,0.4056 39.495 0 1 0.4822,-0.1904 0.2899,0.4056 39.495 1 1 -0.4822,0.1904 z" />
      <path
         id="path162"
         style="fill:#1b1918;fill-rule:evenodd"
         d="m 286.0525,310.1859 a 0.2664,0.3659 -4.0904 0 1 0.2289,-0.3962 0.2664,0.3659 -4.0904 1 1 -0.2289,0.3962 z" />
      <path
         id="path164"
         style="fill:#1b1918;fill-rule:evenodd"
         d="m 284.9148,310.2711 a 0.2301,0.3334 -11.0368 0 1 0.1608,-0.3723 0.2301,0.3334 -11.0368 1 1 -0.1608,0.3723 z" />
    </g>
    <g
       id="g166">
      <path
         id="path168"
         style="fill:#1b1918;fill-rule:evenodd"
         d="m 290.6238,302.9459 c 0.2891,-0.5083 1.2325,-1.2437 1.6002,-1.1588 0.4594,0.1061 1.526,0.765 1.5279,1.2287 0.002,0.4189 -0.005,0.4821 -0.721,0.3222 -0.847,-0.1891 -1.1841,0.0855 -1.2947,0.5138 -0.1315,0.5087 -0.8608,0.3704 -1.0711,0.2031 -0.3558,-0.2829 -0.2519,-0.7386 -0.0413,-1.109 z" />
      <path
         id="path170"
         style="fill:#1b1918;fill-rule:evenodd"
         d="m 294.5759,303.4018 a 0.2682,0.4201 80.3021 0 1 0.4927,0.1604 0.2682,0.4201 80.3021 1 1 -0.4927,-0.1604 z" />
      <path
         id="path172"
         style="fill:#1b1918;fill-rule:evenodd"
         d="m 294.2413,302.6728 a 0.206,0.2916 71.6014 0 1 0.3147,0.1363 0.206,0.2916 71.6014 1 1 -0.3147,-0.1363 z" />
    </g>
    <path
       id="path174"
       style="fill:#1b1918;fill-rule:evenodd"
       d="m 225.934,303.1398 v -10.3759 h 8.1896 v 2.1138 c 0.4754,-0.7469 1.7328,-0.7087 3.1742,-0.7087 h 5.3306 c 4.9507,0 5.1749,7.6833 0.6267,7.6833 h -2.162 c -1.1392,0 -0.9615,2.1907 -0.9615,3.3299 v 15.7609 c 0.9122,-2.0293 6.6549,-2.628 6.6549,3.5805 v 31.1323 l -3.2247,9.457 -4.2409,-0.8757 -2.99,0.2481 -0.5754,3.7865 -5.6251,6.4085 -6.8575,0.0199 c -1.3655,0.004 -3.4079,-2.0767 -3.4079,-3.4438 v -9.8612 c -2.5917,-0.7804 -3.221,-6.9746 2.1819,-6.9962 l 4.3245,-0.0173 v -5.0255 c 0,-3.6088 2.3153,-5.7946 6.0225,-4.4583 l -10.1809,-9.2197 c -1.6654,-1.2172 -2.3624,-2.6734 -2.3587,-5.605 l 0.0289,-23.0697 c 0.003,-2.13 2.0937,-5.1769 6.0508,-3.8637 z" />
    <path
       id="path176"
       style="fill:#0523f8;fill-opacity:1;fill-rule:evenodd"
       d="m 227.2187,294.2543 v 14.4982 q 0,0.8381 0.8535,0.8381 h 3e-4 q 0.8535,0 0.8535,-0.8381 v -14.4982 q 0,-0.8381 -0.8535,-0.8381 h -3e-4 q -0.8535,0 -0.8535,0.8381 z" />
    <path
       id="path178"
       style="fill:#1db0f5;fill-opacity:1;fill-rule:evenodd"
       d="m 229.1956,294.0434 v 12.404 q 0,0.7171 0.8085,0.7171 h 3e-4 q 0.8086,0 0.8086,-0.7171 v -12.404 q 0,-0.7171 -0.8086,-0.7171 h -3e-4 q -0.8085,0 -0.8085,0.7171 z" />
    <path
       id="path180"
       style="fill:#0523f8;fill-opacity:1;fill-rule:evenodd"
       d="m 231.3522,294.0434 v 12.404 q 0,0.7171 0.8085,0.7171 h 3e-4 q 0.8086,0 0.8086,-0.7171 v -12.404 q 0,-0.7171 -0.8086,-0.7171 h -3e-4 q -0.8085,0 -0.8085,0.7171 z" />
    <path
       id="path182"
       style="fill:#1db0f5;fill-opacity:1;fill-rule:evenodd"
       d="m 226.7578,307.4919 v 22.9226 l 12.0617,11.268 c 0.8076,0.7543 0.6684,1.4786 0.667,2.2513 l -0.0366,16.5603 c -0.001,0.6871 -1.0724,0.6831 -1.0732,-0.005 l -0.0281,-17.1783 c -3e-4,-0.2752 -0.098,-0.5816 -0.2987,-0.7696 l -12.2517,-11.4698 c -0.1788,-0.1678 -0.2395,-0.453 -0.2392,-0.6993 l 0.0346,-23.1168 c -9e-4,-2.7519 -3.278,-2.8072 -3.278,-0.0544 v 23.3634 c 0,1.0023 0.2605,2.2141 0.9984,2.8944 l 11.3947,10.514 c 0.2347,0.2163 0.3381,0.578 0.337,0.8972 L 234.9686,363.4 c -0.003,0.8039 -1.0582,0.805 -1.0579,0 l 0.009,-18.2818 c 0,-0.2764 -0.093,-0.587 -0.2963,-0.7738 l -11.2861,-10.3567 c -0.8175,-0.7506 -1.2197,-1.8519 -1.2197,-2.9633 v -23.5449 c 0,-4.5505 5.6398,-4.538 5.6398,0.0125 z" />
    <path
       id="path184"
       style="fill:#0523f8;fill-opacity:1;fill-rule:evenodd"
       d="m 223.9773,305.8886 v 0 c 0.5383,0 0.9782,0.4586 0.9782,1.01 v 23.5627 c 0,0.4051 0.1052,0.8807 0.4014,1.1582 l 11.9095,11.1765 c 0.2769,0.2596 0.3583,0.7021 0.3583,1.082 v 16.7346 c 0,1.2702 -1.9565,1.271 -1.9565,0 v -16.0614 c 0,-0.3711 -0.1205,-0.7883 -0.3903,-1.0423 l -11.5512,-10.8644 c -0.5698,-0.536 -0.7277,-1.5372 -0.7277,-2.0219 v -23.724 c 0,-0.5559 0.44,-1.01 0.9783,-1.01 z" />
    <path
       id="path186"
       style="fill:#ffffff;fill-opacity:1;fill-rule:evenodd"
       d="m 233.0802,324.5491 v 3.3514 l 12.1201,10.8501 c 0.7231,0.8589 0.6088,1.5818 0.6088,2.4103 v 15.594 c 0,0.8266 -1.0295,0.8271 -1.0295,0 v -16.1751 c 0,-0.4079 -0.1502,-0.8404 -0.4125,-1.1531 l -12.0299,-10.7955 c -0.2254,-0.2026 -0.322,-0.5482 -0.322,-0.8515 v -3.4948 c 0,-0.9114 -0.7878,-1.6574 -1.751,-1.6574 v 0 c -0.9632,0 -1.7509,0.7455 -1.7509,1.6574 v 4.7024 c 0,0.5754 0.2281,1.1803 0.6006,1.6188 l 11.7879,10.3533 c 0.2443,0.2877 0.3759,0.6917 0.3759,1.0695 v 18.7262 c 0,0.8408 -1.0177,0.73 -1.0177,0 v -18.3299 c 0,-0.322 -0.0944,-0.6922 -0.3347,-0.9057 l -11.2972,-10.023 c -0.5366,-0.6401 -1.1277,-1.3524 -1.1277,-2.3924 v -4.555 c 0,-4.0782 5.5798,-4.0774 5.5798,0 z" />
    <path
       id="path188"
       style="fill:#1db0f5;fill-opacity:1;fill-rule:evenodd"
       d="m 230.2311,323.4711 v 0 c 0.5351,0 0.9728,0.5417 0.9728,1.1984 v 3.2508 c 0,0.4958 0.1451,1.0712 0.519,1.3972 l 11.7944,10.2901 c 0.3595,0.3135 0.5001,0.8708 0.5001,1.3473 v 18.6834 c 0,1.4238 -1.9457,1.3825 -1.9457,0 v -17.9218 c 0,-0.371 -0.1568,-0.7784 -0.4335,-1.0255 l -11.7014,-10.4434 c -0.3299,-0.2946 -0.6786,-0.9046 -0.6786,-1.3476 v -4.2305 c 0,-0.659 0.4377,-1.1984 0.9729,-1.1984 z" />
    <path
       id="path190"
       style="fill:#0523f8;fill-opacity:1;fill-rule:evenodd"
       d="m 230.2784,345.6833 v 0 c 1.5715,0 2.8573,1.4182 2.8573,3.1513 v 17.9453 c 0,0.8566 -1.1565,0.8575 -1.1565,0 v -17.7741 c 0,-2.8199 -3.4016,-2.8783 -3.4016,0 v 17.7741 c 0,0.8368 -1.1565,0.8374 -1.1565,0 v -17.9453 c 0,-1.7334 1.2858,-3.1513 2.8573,-3.1513 z" />
    <path
       id="path192"
       style="fill:#0523f8;fill-opacity:1;fill-rule:evenodd"
       d="m 242.9512,320.4629 v 0 c 1.5716,0 2.8574,1.4182 2.8574,3.1513 v 12.0935 c 0,0.9779 -1.1566,0.9703 -1.1566,0 v -11.9223 c 0,-2.8199 -3.4015,-2.8783 -3.4015,0 v 9.3138 c 0,0.8768 -1.1566,0.8773 -1.1566,0 v -9.485 c 0,-1.7334 1.2858,-3.1513 2.8573,-3.1513 z" />
    <path
       id="path194"
       style="fill:#1db0f5;fill-opacity:1;fill-rule:evenodd"
       d="m 231.4349,349.0807 v 17.1944 c 0,1.6041 -2.313,1.709 -2.313,0 v -17.1944 c 0,-2.1901 2.313,-2.1887 2.313,0 z" />
    <path
       id="path196"
       style="fill:#1db0f5;fill-opacity:1;fill-rule:evenodd"
       d="m 244.1078,323.8603 v 10.4176 c 0,1.5964 -2.3131,1.6503 -2.3131,0 v -10.4176 c 0,-2.1901 2.3131,-2.1884 2.3131,0 z" />
    <path
       id="path198"
       style="fill:#1db0f5;fill-opacity:1;fill-rule:evenodd"
       d="m 231.3227,369.9349 h -5.5761 c -0.9306,0 -0.9405,-0.6106 -0.9405,-1.2765 v -10.5735 c 0,-0.3827 -0.3127,-0.9144 -0.6945,-0.9144 h -2.4519 c -1.1614,0 -1.1152,2.2331 0,2.2331 l 1.2653,3e-4 v 11.0681 c 0,0.5261 0.076,1.277 0.6047,1.277 h 7.793 c 1.1421,0 1.1418,-1.8141 0,-1.8141 z" />
    <path
       id="path200"
       style="fill:#0523f8;fill-opacity:1;fill-rule:evenodd"
       d="m 231.3227,369.1287 h -5.173 c -0.5244,0 -0.739,-0.009 -0.739,-0.5375 V 357.766 c 0,-0.5868 -0.6066,-1.2002 -1.1928,-1.2002 h -2.5665 c -1.9148,0 -1.9808,3.4821 0,3.4878 l 0.669,0.002 v 10.9539 c 0,0.5629 0.5766,1.4111 1.1421,1.4111 h 7.8602 c 2.0381,0 2.1268,-3.2919 0,-3.2919 z m -0.1426,-1.1421 h -4.4257 l -0.0579,-10.0395 c -0.006,-1.1786 -0.9603,-2.491 -2.1384,-2.4805 l -2.6326,0.0243 c -1.593,0 -2.897,1.2847 -2.897,2.8554 v 0 c 0,1.2758 0.9278,2.3635 2.1053,2.7263 l 0.0105,10.0046 c 0.001,1.1506 1.0996,2.6198 2.251,2.6198 h 7.7848 c 1.5933,0 2.897,-1.2847 2.897,-2.855 v 0 c 0,-1.5707 -1.3037,-2.8554 -2.897,-2.8554 z" />
    <path
       id="path202"
       style="fill:#1db0f5;fill-opacity:1;fill-rule:evenodd"
       d="m 235.0494,327.4376 v -29.8301 c 0,-0.5868 0.6089,-1.2002 1.1928,-1.2002 h 6.463 c 1.9142,0 1.9808,3.4872 0,3.4877 l -4.7628,0.002 v 31.0606 c 0,1.0259 1.4225,1.0197 1.4227,-0.007 l 0.0105,-30.0362 c 0.0734,-0.0227 3.9935,-0.0482 4.0646,-0.0763 1.0724,-0.4232 1.8879,-1.4541 1.8879,-2.6501 v 0 c 0,-1.5707 -1.3039,-2.8553 -2.897,-2.8553 l -6.5291,-0.0244 c -1.1752,-0.004 -2.1393,1.302 -2.1384,2.4806 l 0.0238,29.6459 c 6e-4,0.8594 1.262,0.989 1.262,0.003 z" />
    <path
       id="path204"
       style="fill:#0523f8;fill-opacity:1;fill-rule:evenodd"
       d="m 235.529,328.7392 v -30.8128 c 0,-0.3827 0.3161,-0.9145 0.6945,-0.9145 h 6.4735 c 1.1602,0 1.1151,2.2331 0,2.2331 l -5.2869,3e-4 v 29.4959 c 0,1.4834 -1.8811,1.4871 -1.8811,-0.002 z" />
    <path
       id="path206"
       style="fill:#ffffff;fill-opacity:1;fill-rule:evenodd;stroke:#1cb0f5;stroke-width:0.6;stroke-miterlimit:4;stroke-dasharray:none;stroke-opacity:1"
       d="m 297.6299,360.1587 c 0,-4.0158 5.5717,-4.0141 5.5717,0 v 5.476 c 0,0.3597 0.3065,0.8518 0.6667,0.8507 l 2.2612,-0.008 c 0.9967,-0.003 0.9426,1.4531 -2e-4,1.4559 l -3.1187,0.0102 c -0.5789,0.002 -1.1427,-0.7299 -1.1427,-1.309 v -6.0614 c 0,-2.5761 -2.9043,-2.5338 -2.9043,0 v 8.4425 c 0,0.657 0.5796,1.5372 1.2376,1.5372 h 5.8099 c 0.9476,0 1.0729,1.51 0,1.51 h -6.4769 c -0.9318,0 -1.9043,-1.1154 -1.9043,-2.0472 v -9.8572 z M 288.6834,391.1 c 5.404,2.124 6.6118,-0.9893 2.2592,-3.4038 -2.3822,-1.3215 -0.9277,-5.2807 1.8397,-5.2702 l 13.2208,0.051 c 0.421,0.002 0.7654,0.3099 0.7654,0.6889 v 0 c 0,0.3787 -0.3453,0.6888 -0.7654,0.6888 h -12.6082 c -2.1419,0 -2.4673,2.2524 -0.8986,3.2369 2.2034,1.3827 3.6337,3.6377 2.5492,5.1613 -1.1268,1.5831 -4.0887,1.6203 -6.5662,0.4289 -1.4,-0.6733 -0.4339,-1.8324 0.2041,-1.5818 z m 3.1805,-26.3111 h 4.3937 c 0.421,0 0.7654,0.3098 0.7654,0.6888 v 0 c 0,0.3787 -0.345,0.6888 -0.7654,0.6888 h -3.729 c -0.5286,0 -0.5298,0.8334 0,0.8334 h 3.729 c 0.421,0 0.7654,0.3098 0.7654,0.6888 v 0 c 0,0.3787 -0.3447,0.6888 -0.7654,0.6888 h -20.075 c -0.4206,0 -0.7653,-0.3101 -0.7653,-0.6888 v 0 c 0,-0.379 0.3444,-0.6888 0.7653,-0.6888 h 3.8974 c 0.6429,0 0.5992,-0.8334 0,-0.8334 h -4.7648 c -0.4209,0 -0.7653,-0.3101 -0.7653,-0.6888 v 0 c 0,-0.379 0.3444,-0.6888 0.7653,-0.6888 h 3.5102 c 0.6803,0 0.68,-0.8334 0,-0.8334 h -4.1735 c -0.4206,0 -0.7653,-0.3101 -0.7653,-0.6889 v 0 c 0,-0.3789 0.3444,-0.6888 0.7653,-0.6888 h 4.252 l 4.4391,3.9685 h 7.2453 z m -7.2624,4.422 h 10.1764 c 0.421,0 0.7654,0.3098 0.7654,0.6888 v 0 c 0,0.3787 -0.3447,0.6888 -0.7654,0.6888 h -10.1764 c -0.4206,0 -0.7653,-0.3101 -0.7653,-0.6888 v 0 c 0,-0.379 0.3444,-0.6888 0.7653,-0.6888 z m 19.6952,-8.8441 h 1.7064 c 0.421,0 0.7654,0.3098 0.7654,0.6888 v 0 c 0,0.3787 -0.3447,0.6888 -0.7654,0.6888 h -1.7064 c -0.4207,0 -0.7654,-0.3101 -0.7654,-0.6888 v 0 c 0,-0.379 0.3444,-0.6888 0.7654,-0.6888 z m 0,2.211 h 1.7064 c 0.421,0 0.7654,0.3099 0.7654,0.6888 v 0 c 0,0.3788 -0.3447,0.6889 -0.7654,0.6889 h -1.7064 c -0.4207,0 -0.7654,-0.3101 -0.7654,-0.6889 v 0 c 0,-0.3789 0.3444,-0.6888 0.7654,-0.6888 z m 0,2.2111 h 1.7064 c 0.421,0 0.7654,0.3098 0.7654,0.6888 v 0 c 0,0.3787 -0.3447,0.6888 -0.7654,0.6888 h -1.7064 c -0.4207,0 -0.7654,-0.3101 -0.7654,-0.6888 v 0 c 0,-0.379 0.3444,-0.6888 0.7654,-0.6888 z m -9.7456,-4.4221 h 1.7065 c 0.421,0 0.7654,0.3098 0.7654,0.6888 v 0 c 0,0.3787 -0.3447,0.6888 -0.7654,0.6888 h -1.7065 c -0.4206,0 -0.7653,-0.3101 -0.7653,-0.6888 v 0 c 0,-0.379 0.3444,-0.6888 0.7653,-0.6888 z m 0,2.211 h 1.7065 c 0.421,0 0.7654,0.3099 0.7654,0.6888 v 0 c 0,0.3788 -0.3447,0.6889 -0.7654,0.6889 h -1.7065 c -0.4206,0 -0.7653,-0.3101 -0.7653,-0.6889 v 0 c 0,-0.3789 0.3444,-0.6888 0.7653,-0.6888 z m -8.6229,11.0551 h 20.0749 c 0.421,0 0.7654,0.3099 0.7654,0.6889 v 0 c 0,0.3787 -0.3447,0.6888 -0.7654,0.6888 h -20.0749 c -0.4207,0 -0.7654,-0.3101 -0.7654,-0.6888 v 0 c 0,-0.379 0.3444,-0.6889 0.7654,-0.6889 z m 3.3675,2.2111 h 16.7074 c 0.421,0 0.7654,0.3098 0.7654,0.6888 v 0 c 0,0.3787 -0.3447,0.6888 -0.7654,0.6888 h -16.7074 c -0.4206,0 -0.7653,-0.3101 -0.7653,-0.6888 v 0 c 0,-0.379 0.3444,-0.6888 0.7653,-0.6888 z m 2.6022,2.211 h 14.1052 c 0.421,0 0.7654,0.3098 0.7654,0.6888 v 0 c 0,0.3787 -0.3447,0.6888 -0.7654,0.6888 h -14.1052 c -0.4206,0 -0.7653,-0.3101 -0.7653,-0.6888 v 0 c 0,-0.379 0.3444,-0.6888 0.7653,-0.6888 z m 0.8674,2.211 h 13.2378 c 0.421,0 0.7654,0.3098 0.7654,0.6888 v 0 c 0,0.3787 -0.3447,0.6889 -0.7654,0.6889 h -13.2378 c -0.4206,0 -0.7653,-0.3102 -0.7653,-0.6889 v 0 c 0,-0.379 0.3444,-0.6888 0.7653,-0.6888 z" />
    <path
       id="path208"
       style="fill:#004600;fill-opacity:1;fill-rule:evenodd"
       d="m 286.3522,364.2106 h 4.7889 l -0.5043,1.2543 h -4.697 z m 0.7413,-2.2578 h 4.9986 l -0.6404,1.5052 h -4.8744 z m 0.8419,-2.5923 h 5.0751 l 0.0831,0.1933 -0.7067,1.6464 h -5.0394 z m -0.9771,-3.0042 h 4.3707 l 0.9442,1.6867 h -4.6301 z m -1.4151,-3.1708 h 4.0521 l 0.9443,1.6866 h -4.2251 z m 1.1342,-5.3257 0.9172,1.6787 c 9e-4,10e-4 -0.1142,0.004 -0.1156,0.004 l -3.85,-0.004 -1.0435,-1.6787 c -8e-4,-0.002 3.6964,-3e-4 4.0919,0 z m -5.9485,-2.7026 h 4.4654 l 1.0888,1.9882 h -4.1565 z m -2.1496,-2.766 5.0817,0.013 1.1143,1.9622 c 0.004,0.007 0.0286,0.013 0.0218,0.013 l -4.6519,-0.013 -1.5707,-1.9622 c -0.005,-0.007 -0.003,-0.013 0.005,-0.013 z m 5.4882,7.9608 h 3.9557 l 0.9443,1.6866 h -3.9904 z" />
    <path
       id="path210"
       style="fill:#ff6501;fill-opacity:1;fill-rule:evenodd"
       d="m 260.1252,387.0374 c 5.6311,0 10.224,1.7697 10.224,3.9393 0,2.1697 -4.5929,3.9393 -10.224,3.9393 -5.631,0 -10.2243,-1.7696 -10.2243,-3.9393 0,-2.1696 4.5933,-3.9393 10.2243,-3.9393 z m -11.3709,-1.6551 c 6.1351,-4.6936 19.1364,-4.938 23.9434,0.4113 0.125,0.1389 0.2929,0.1856 0.406,0.3319 1.4176,2.3794 0.0788,3.4359 -1.8114,1.3791 -5.2982,-5.7674 -13.8467,-4.2279 -20.3499,-1.0143 -2.1696,1.7921 -3.8656,0.1755 -2.1881,-1.108 z" />
    <path
       id="path212"
       style="fill:#1b1918;fill-rule:evenodd"
       d="m 250.4305,327.1329 h 2.4618 v 2.5165 h 2.6808 v 2.0243 h -2.6808 v 12.7199 h -2.4618 v -12.7199 h -2.8996 v -2.0243 h 2.8996 z" />
    <g
       id="g214">
      <path
         id="path216"
         style="fill:#1b1918;fill-rule:evenodd"
         d="m 223.3295,336.608 a 4.5326,4.5326 0 0 1 4.5326,4.5326 4.5326,4.5326 0 1 1 -4.5326,-4.5326 z" />
      <path
         id="path218"
         style="fill:#0523f8;fill-opacity:1;fill-rule:evenodd"
         d="m 223.3293,339.8707 a 1.2698,1.2698 0 0 1 1.2699,1.2698 1.2698,1.2698 0 1 1 -1.2699,-1.2698 z" />
      <path
         id="path220"
         style="fill:#ffffff;fill-rule:evenodd"
         d="m 223.3295,344.8133 c -2.023,0 -3.6727,-1.6497 -3.6727,-3.6725 0,-2.0231 1.6497,-3.6728 3.6727,-3.6728 2.0228,0 3.6728,1.6497 3.6728,3.6728 0,2.0228 -1.65,3.6725 -3.6728,3.6725 z m -2e-4,-1.8841 c -0.9852,0 -1.7887,-0.8035 -1.7887,-1.7887 0,-0.9852 0.8035,-1.7887 1.7887,-1.7887 0.9852,0 1.7887,0.8035 1.7887,1.7887 0,0.9852 -0.8035,1.7887 -1.7887,1.7887 z" />
    </g>
    <g
       id="g222">
      <path
         id="path224"
         style="fill:#1b1918;fill-rule:evenodd"
         d="m 243.0847,309.1619 a 4.5326,4.5326 0 0 1 4.5326,4.5326 4.5326,4.5326 0 1 1 -4.5326,-4.5326 z" />
      <path
         id="path226"
         style="fill:#0523f8;fill-opacity:1;fill-rule:evenodd"
         d="m 243.0845,312.4245 a 1.2698,1.2698 0 0 1 1.2699,1.2699 1.2698,1.2698 0 1 1 -1.2699,-1.2699 z" />
      <path
         id="path228"
         style="fill:#ffffff;fill-rule:evenodd"
         d="m 243.0848,317.3671 c -2.0231,0 -3.6728,-1.6497 -3.6728,-3.6725 0,-2.023 1.6497,-3.6727 3.6728,-3.6727 2.0228,0 3.6727,1.6497 3.6727,3.6727 0,2.0228 -1.6499,3.6725 -3.6727,3.6725 z m -3e-4,-1.884 c -0.9852,0 -1.7887,-0.8035 -1.7887,-1.7887 0,-0.9852 0.8035,-1.7887 1.7887,-1.7887 0.9852,0 1.7887,0.8035 1.7887,1.7887 0,0.9852 -0.8035,1.7887 -1.7887,1.7887 z" />
    </g>
    <g
       id="g230">
      <path
         id="path232"
         style="fill:#1b1918;fill-rule:evenodd"
         d="m 220.4104,293.3275 a 4.7804,4.7804 0 0 1 4.7803,4.7804 4.7804,4.7804 0 1 1 -4.7803,-4.7804 z" />
      <path
         id="path234"
         style="fill:#0523f8;fill-opacity:1;fill-rule:evenodd"
         d="m 220.4102,296.7685 a 1.3393,1.3393 0 0 1 1.3393,1.3393 1.3393,1.3393 0 1 1 -1.3393,-1.3393 z" />
      <path
         id="path236"
         style="fill:#ffffff;fill-rule:evenodd"
         d="m 220.4104,301.9813 c -2.1336,0 -3.8735,-1.7399 -3.8735,-3.8733 0,-2.1336 1.7399,-3.8735 3.8735,-3.8735 2.1334,0 3.8735,1.7399 3.8735,3.8735 0,2.1334 -1.7401,3.8733 -3.8735,3.8733 z m -2e-4,-1.987 c -1.0391,0 -1.8865,-0.8475 -1.8865,-1.8865 0,-1.0391 0.8474,-1.8865 1.8865,-1.8865 1.039,0 1.8864,0.8474 1.8864,1.8865 0,1.039 -0.8474,1.8865 -1.8864,1.8865 z" />
    </g>
    <g
       id="g238">
      <path
         id="path240"
         style="fill:#1b1918;fill-rule:evenodd"
         d="m 233.2482,307.4517 c -1.7167,3.8455 1.0832,5.8107 1.2636,9.1504 0.096,5.1957 -5.8228,5.67 -7.3953,0.4503 -0.9585,-4.1879 2.3497,-7.7034 6.1317,-9.6007 z" />
      <path
         id="path242"
         style="fill:#ffffff;fill-opacity:1;fill-rule:evenodd"
         d="m 232.4499,308.5763 c -1.439,3.2234 1.2059,4.8182 1.3572,7.6178 0.1438,4.5455 -4.6195,4.9914 -6.0146,0.7008 -0.8034,-3.5105 1.4871,-6.7283 4.6574,-8.3186 z" />
      <path
         id="path244"
         style="fill:#1b1918;fill-rule:evenodd"
         d="m 231.1967,311.6362 c -0.6134,2.0609 1.2017,3.5795 1.2397,5.3691 0.0596,2.7835 -3.0422,2.7631 -3.544,-0.0439 -0.3989,-2.2324 0.9547,-4.3087 2.3043,-5.3252 z" />
      <path
         id="path246"
         style="fill:#9a0407;fill-opacity:1;fill-rule:evenodd"
         d="m 230.9766,312.2898 c -0.5026,1.6886 1.1035,3.0233 1.1347,4.4894 0.0486,2.2806 -2.4928,2.2114 -2.9037,-0.0884 -0.3268,-1.8289 0.6632,-3.5682 1.769,-4.401 z" />
    </g>
    <g
       id="g248">
      <path
         id="path250"
         style="fill:#1b1918;fill-rule:evenodd"
         d="m 263.7812,295.5578 c -4.2058,1.9954 -6.6624,-0.6521 -10.4548,-0.586 -5.8843,0.2871 -5.9263,6.2247 0.1086,7.4084 4.8167,0.6473 8.5164,-2.9108 10.3462,-6.8224 z" />
      <path
         id="path252"
         style="fill:#ffffff;fill-opacity:1;fill-rule:evenodd"
         d="m 262.576,296.4368 c -3.5255,1.6727 -5.5502,-0.8477 -8.7292,-0.7922 -5.153,0.1914 -5.2594,4.9746 -0.2901,6.0498 4.0375,0.5427 7.4855,-1.9788 9.0193,-5.2576 z" />
      <path
         id="path254"
         style="fill:#1b1918;fill-rule:evenodd"
         d="m 259.22,297.9121 c -2.2798,0.7635 -4.1489,-0.9347 -6.1762,-0.8408 -3.1531,0.1456 -2.8708,3.2375 0.3458,3.5311 2.5582,0.2333 4.7935,-1.2695 5.8304,-2.6903 z" />
      <path
         id="path256"
         style="fill:#9a0407;fill-opacity:1;fill-rule:evenodd"
         d="m 258.4991,298.1797 c -1.8678,0.6256 -3.5116,-0.8778 -5.1724,-0.8009 -2.5834,0.1196 -2.2928,2.649 0.3427,2.8894 2.0957,0.1911 3.9802,-0.9244 4.8297,-2.0885 z" />
    </g>
  </g>
</svg>
