<svg version="1.1" id="Layer_1" xmlns="http://www.w3.org/2000/svg" xmlns:xlink="http://www.w3.org/1999/xlink" x="0px" y="0px"
	 width="100%" viewBox="0 0 1472 832" enable-background="new 0 0 1472 832" xml:space="preserve">
<path fill="#1B1943" opacity="1.000000" stroke="none" 
	d="
M855.000000,833.000000 
	C570.000000,833.000000 285.500000,833.000000 1.000000,833.000000 
	C1.000000,555.666687 1.000000,278.333344 1.000000,1.000000 
	C491.666656,1.000000 982.333313,1.000000 1473.000000,1.000000 
	C1473.000000,278.333344 1473.000000,555.666687 1473.000000,833.000000 
	C1267.166626,833.000000 1061.333374,833.000000 855.000000,833.000000 
M840.443787,584.366638 
	C839.430176,580.071655 836.876221,577.544434 832.309570,578.017761 
	C828.590759,578.403320 826.055237,580.563660 826.028992,584.501587 
	C825.868103,608.630127 825.769043,632.759399 825.770874,656.888428 
	C825.771179,661.113831 828.717590,663.215454 832.542664,663.519348 
	C836.167603,663.807251 839.189148,662.118469 840.087219,658.356873 
	C840.694885,655.811890 840.666260,653.083862 840.689636,650.435669 
	C840.808411,636.967163 840.851379,623.497986 841.484558,609.406860 
	C841.657288,604.291199 842.002502,599.173401 841.937622,594.060791 
	C841.899109,591.020447 841.215332,587.988342 840.443787,584.366638 
M953.586548,436.816528 
	C954.053528,435.337128 954.947021,433.847107 954.910461,432.380219 
	C954.782837,427.252838 954.072388,422.134430 954.051758,417.010773 
	C953.952087,392.224792 954.028809,367.438171 953.956787,342.651978 
	C953.951294,340.757782 953.276184,338.865540 952.672729,336.070557 
	C952.750305,331.391022 952.827820,326.711517 953.473755,321.412598 
	C953.300842,313.268158 953.127869,305.123749 952.735046,296.067047 
	C952.813782,287.049103 952.892517,278.031128 953.733398,268.771545 
	C954.115601,264.149109 954.574707,259.530212 954.786987,254.899994 
	C954.814941,254.290436 953.581360,253.623032 952.691833,252.213852 
	C952.769287,251.152557 952.846802,250.091248 953.486450,248.406067 
	C953.650208,247.768326 953.956116,247.130798 953.957092,246.492783 
	C953.988037,226.829712 954.011597,207.166519 953.939575,187.503693 
	C953.935181,186.303986 953.136841,185.107208 952.329285,183.330917 
	C950.080627,174.985718 943.919617,170.993286 933.854858,172.251541 
	C911.722351,175.018463 889.535828,177.545151 867.544678,181.210037 
	C825.603455,188.199707 785.998657,201.878189 750.029785,225.027939 
	C746.823975,227.091217 744.525452,226.714539 741.544983,224.730148 
	C722.183533,211.839218 701.485901,201.746109 679.255005,194.701569 
	C639.338440,182.052719 598.215332,176.131119 556.721375,172.210129 
	C547.942444,171.380569 541.964111,177.569626 541.964783,187.042236 
	C541.972290,285.850525 541.997437,384.658783 542.038452,483.467072 
	C542.042908,494.306488 546.903992,499.736450 557.682007,500.912659 
	C579.864319,503.333435 602.063843,505.598114 624.240479,508.069244 
	C652.538757,511.222473 680.824219,514.491882 709.103333,517.812500 
	C710.735229,518.004150 712.804749,518.670715 713.747986,519.852600 
	C720.559082,528.386536 729.501770,533.172302 740.087769,534.611511 
	C754.287720,536.541870 767.516296,534.216431 777.287048,522.628113 
	C779.998962,519.411682 782.626465,517.725891 786.706360,517.285889 
	C836.216492,511.946686 885.712097,506.472778 935.217957,501.093567 
	C945.015015,500.029022 949.541016,496.465729 953.016724,486.770691 
	C954.692749,484.738312 956.743591,482.685852 952.411133,480.069366 
	C952.522156,474.725891 952.633118,469.382446 953.545105,463.826904 
	C953.740112,457.723389 953.946350,451.620087 954.072754,445.515137 
	C954.076355,445.340912 953.230347,445.149078 952.493225,444.121155 
	C952.595398,441.758392 952.697571,439.395630 953.586548,436.816528 
M973.685852,603.918701 
	C967.909119,597.979736 961.730713,599.179260 958.701599,606.903992 
	C957.487732,609.999634 956.512695,613.189148 955.435242,616.338135 
	C952.524902,624.843323 949.617981,633.349670 946.350037,642.907593 
	C945.599426,640.868042 945.212708,639.985413 944.946533,639.067810 
	C941.888184,628.522766 938.911438,617.953491 935.779053,607.430542 
	C933.941345,601.256897 930.529907,599.010498 925.759338,600.495667 
	C920.946472,601.993896 919.810486,604.935486 921.695007,611.411133 
	C923.089478,616.202759 924.561157,620.973389 926.086609,625.725098 
	C929.288452,635.698608 932.521484,645.662170 935.796631,655.611816 
	C937.323853,660.251343 940.199646,663.567139 945.407227,663.710022 
	C950.514587,663.850281 953.824402,660.943115 955.756042,656.453003 
	C957.001282,653.558472 958.039917,650.565063 959.008179,647.563416 
	C961.436768,640.034607 963.772766,632.475952 966.145874,624.929260 
	C967.836487,626.674866 968.452942,628.482605 969.030701,630.302734 
	C971.696716,638.701416 974.239990,647.141174 977.055725,655.489197 
	C978.570129,659.979187 981.084473,663.432617 986.690857,663.304871 
	C992.157349,663.180298 995.350647,660.403076 997.046204,655.530640 
	C1002.347107,640.297485 1007.640564,625.061462 1012.849426,609.796692 
	C1014.109070,606.105408 1013.550110,602.854309 1009.553101,601.028931 
	C1005.783203,599.307251 1001.551453,600.391968 999.614624,604.095459 
	C998.089539,607.011719 997.109985,610.246338 996.149780,613.418701 
	C993.324829,622.751892 990.630249,632.124451 987.884583,641.481628 
	C987.528564,641.507141 987.172607,641.532654 986.816650,641.558167 
	C982.554749,629.235596 978.292847,616.913086 973.685852,603.918701 
M556.478577,663.054565 
	C565.992920,664.217346 575.130432,663.325012 583.298401,657.784668 
	C588.168396,654.481384 588.370667,649.841919 584.069092,646.224121 
	C580.902588,643.561035 578.162842,645.098633 575.489014,646.970947 
	C568.675476,651.741760 561.465942,651.996399 554.221375,648.430786 
	C549.246460,645.982178 546.519470,641.691223 545.745911,635.775513 
	C547.691650,635.775513 549.009521,635.775024 550.327393,635.775635 
	C560.153748,635.780212 569.985352,635.987244 579.804810,635.728943 
	C588.477905,635.500854 590.625549,632.809021 589.891846,624.178101 
	C589.793762,623.024780 589.561401,621.871033 589.273804,620.747559 
	C585.060608,604.289062 566.823853,595.568848 549.747559,601.832031 
	C536.867004,606.556274 529.637146,617.794006 530.442932,631.837952 
	C531.399780,648.513245 540.083557,659.232849 556.478577,663.054565 
M614.921936,625.241882 
	C599.056580,629.644836 593.045105,642.697388 602.241943,654.332092 
	C605.382935,658.305603 610.724548,661.305664 615.659302,662.917603 
	C623.266113,665.402222 630.712219,662.959839 637.395142,658.440491 
	C639.601685,662.932678 643.050659,664.337097 647.464478,663.024963 
	C652.204407,661.615845 651.516663,657.585327 651.486694,653.947144 
	C651.396362,642.966370 651.313049,631.985474 651.209290,621.004761 
	C651.129761,612.583191 646.793335,606.829224 639.465820,603.376221 
	C629.399719,598.632874 619.110352,599.369568 608.906799,603.087097 
	C607.547607,603.582336 606.247742,604.535583 605.213196,605.569702 
	C602.397217,608.384521 601.857178,611.767761 604.046326,615.094910 
	C606.381897,618.644531 609.293884,617.425232 612.264343,615.627502 
	C617.630371,612.379944 623.473145,611.426819 629.526611,613.128723 
	C635.230347,614.732239 637.474915,618.561035 636.385986,625.102966 
	C629.609497,625.102966 622.682373,625.102966 614.921936,625.241882 
M851.799805,635.878845 
	C854.663452,655.555237 871.836182,667.263855 892.152893,662.713013 
	C904.075073,660.042480 912.345093,652.292297 915.630493,640.493408 
	C919.074524,628.125000 915.996643,616.794128 906.256592,608.272949 
	C895.133240,598.541565 882.013550,597.209229 868.930115,603.398315 
	C855.961487,609.533142 850.780701,620.847290 851.799805,635.878845 
M767.898560,635.500610 
	C767.901550,630.837036 767.776245,626.169006 767.937195,621.510925 
	C768.186890,614.288391 764.671326,609.086060 759.163147,605.082886 
	C749.275146,597.896545 737.307983,598.616821 726.341736,607.045166 
	C725.225891,601.695923 721.790955,599.971985 716.767395,600.973572 
	C711.362976,602.051086 711.664307,606.191772 711.678284,610.297302 
	C711.728210,624.953674 711.707642,639.610352 711.691223,654.266907 
	C711.684204,660.515259 713.888672,663.422302 718.792786,663.519043 
	C724.027893,663.622375 727.006104,660.195312 727.035217,653.959595 
	C727.076416,645.133179 726.892883,636.300903 727.157471,627.481750 
	C727.411621,619.014038 733.078369,613.733643 741.173218,613.881531 
	C748.570618,614.016602 752.721375,618.773987 752.861755,627.680298 
	C753.008728,637.005127 752.867737,646.334229 752.950439,655.660583 
	C752.995728,660.771118 755.814575,663.634521 760.450012,663.556274 
	C765.099060,663.477783 767.885681,660.554199 767.930298,655.487305 
	C767.986084,649.158875 767.913269,642.829346 767.898560,635.500610 
M800.425476,633.501099 
	C800.425476,627.095215 800.425476,620.689392 800.425476,614.004272 
	C804.178955,614.004272 806.833130,614.119202 809.473816,613.979675 
	C814.491699,613.714417 816.994202,611.373535 816.855957,607.133057 
	C816.700073,602.352783 813.659668,600.981506 809.450806,601.038269 
	C806.531250,601.077637 803.610718,601.045837 800.778259,601.045837 
	C799.828186,591.181702 800.714233,590.116882 809.440674,589.809509 
	C810.271057,589.780212 811.120361,589.791260 811.925171,589.617859 
	C815.304199,588.890198 817.138245,586.828186 817.077393,583.299255 
	C817.015747,579.724121 814.634460,578.323730 811.568726,578.059143 
	C808.425964,577.787842 805.237732,577.768372 802.085327,577.936829 
	C792.719177,578.437439 786.695923,584.479248 786.131897,593.848328 
	C785.993835,596.141357 786.111328,598.449829 786.111328,600.735962 
	C777.039429,600.982361 774.193176,602.672119 774.128235,607.617981 
	C774.067200,612.266663 776.517578,613.664917 785.923523,614.194641 
	C785.923523,627.304871 785.951843,640.434937 785.911743,653.564819 
	C785.891479,660.175110 788.082642,663.281250 793.029541,663.386597 
	C798.272339,663.498352 800.600952,660.495239 800.588013,653.493835 
	C800.576294,647.162903 800.485962,640.832031 800.425476,633.501099 
M510.496246,649.035767 
	C504.398224,649.035767 498.300171,649.035767 492.134613,649.035767 
	C492.134613,628.049866 492.146942,607.738586 492.126740,587.427368 
	C492.121002,581.677185 489.651123,578.578308 485.131226,578.482544 
	C480.529205,578.384949 477.756927,581.471313 477.741638,587.124817 
	C477.681244,609.455444 477.670532,631.786377 477.722321,654.117004 
	C477.737030,660.460693 480.201263,662.856201 486.524841,662.884766 
	C497.523224,662.934387 508.522186,662.919006 519.520447,662.854309 
	C521.155945,662.844666 522.873230,662.662415 524.406738,662.135437 
	C528.359558,660.777039 529.594116,657.643494 529.009155,653.785339 
	C528.457214,650.144897 525.925842,649.016602 522.490540,649.098694 
	C518.827271,649.186340 515.159058,649.066040 510.496246,649.035767 
M667.867004,662.707825 
	C675.612061,664.838623 679.438965,662.093323 679.478638,654.203979 
	C679.513794,647.218933 679.300049,640.232727 679.316467,633.247375 
	C679.344482,621.344177 683.645813,616.481689 695.343994,614.918091 
	C696.159912,614.809021 696.999207,614.691101 697.762512,614.404175 
	C701.814209,612.880920 702.407410,609.539124 702.069275,605.827881 
	C701.735046,602.159912 699.362366,600.848328 695.950806,600.630859 
	C689.543640,600.222473 684.287720,602.347534 680.909424,607.074646 
	C678.778137,604.894775 677.156677,601.952637 674.766296,601.052368 
	C669.407104,599.034180 664.884521,602.488892 664.750427,608.473328 
	C664.396423,624.270813 664.211365,640.075195 664.288330,655.875305 
	C664.298828,658.024048 666.193115,660.163574 667.867004,662.707825 
z"/>
<path fill="#F2F4F6" opacity="1.000000" stroke="none" 
	d="
M952.314453,487.133270 
	C949.541016,496.465729 945.015015,500.029022 935.217957,501.093567 
	C885.712097,506.472778 836.216492,511.946686 786.706360,517.285889 
	C782.626465,517.725891 779.998962,519.411682 777.287048,522.628113 
	C767.516296,534.216431 754.287720,536.541870 740.087769,534.611511 
	C729.501770,533.172302 720.559082,528.386536 713.747986,519.852600 
	C712.804749,518.670715 710.735229,518.004150 709.103333,517.812500 
	C680.824219,514.491882 652.538757,511.222473 624.240479,508.069244 
	C602.063843,505.598114 579.864319,503.333435 557.682007,500.912659 
	C546.903992,499.736450 542.042908,494.306488 542.038452,483.467072 
	C541.997437,384.658783 541.972290,285.850525 541.964783,187.042236 
	C541.964111,177.569626 547.942444,171.380569 556.721375,172.210129 
	C598.215332,176.131119 639.338440,182.052719 679.255005,194.701569 
	C701.485901,201.746109 722.183533,211.839218 741.544983,224.730148 
	C744.525452,226.714539 746.823975,227.091217 750.029785,225.027939 
	C785.998657,201.878189 825.603455,188.199707 867.544678,181.210037 
	C889.535828,177.545151 911.722351,175.018463 933.854858,172.251541 
	C943.919617,170.993286 950.080627,174.985718 952.450684,184.091629 
	C952.689453,206.244873 952.806885,227.637421 952.924316,249.029953 
	C952.846802,250.091248 952.769287,251.152557 952.707947,253.056824 
	C952.806458,258.937592 952.888916,263.975372 952.971313,269.013184 
	C952.892517,278.031128 952.813782,287.049103 952.737671,296.983093 
	C952.795349,305.943420 952.850342,313.987701 952.905334,322.031982 
	C952.827820,326.711517 952.750305,331.391022 952.683472,336.981445 
	C952.657593,363.142822 952.601562,388.393280 952.595581,413.643768 
	C952.593689,421.440125 952.727905,429.236511 952.799744,437.032867 
	C952.697571,439.395630 952.595398,441.758392 952.507812,444.999451 
	C952.596313,451.931458 952.670227,457.985229 952.744141,464.038971 
	C952.633118,469.382446 952.522156,474.725891 952.427612,480.938934 
	C952.400940,483.583435 952.357666,485.358337 952.314453,487.133270 
M911.203918,200.848526 
	C911.203918,200.848526 911.377075,200.905090 911.609009,201.448563 
	C912.003662,201.865646 912.398315,202.282745 912.760132,202.906647 
	C912.760132,202.906647 912.950439,202.993912 913.039368,203.824554 
	C913.324341,210.549194 913.609253,217.273819 913.683777,224.887192 
	C913.765991,227.925125 913.848267,230.963043 913.724426,234.918518 
	C913.764038,277.404022 913.802612,319.889526 913.843506,362.375031 
	C913.875793,395.863892 913.919434,429.352753 913.936951,462.841614 
	C913.940125,468.898468 912.897705,469.842133 906.971497,469.630585 
	C903.651123,469.512054 900.327209,469.492310 896.094788,469.215485 
	C891.028992,469.381927 885.963196,469.548370 880.419800,469.550140 
	C880.269287,469.625702 880.118774,469.701263 879.312561,469.570679 
	C878.874207,469.680695 878.435913,469.790710 877.096313,469.759827 
	C871.051086,470.445801 865.005798,471.131775 858.164612,471.694794 
	C857.111023,471.878143 856.057373,472.061523 854.319458,472.156921 
	C853.214783,472.447174 852.110046,472.737427 850.175537,472.947479 
	C816.171448,478.384369 784.965881,491.228882 755.952759,509.401215 
	C748.942322,513.792175 743.174072,514.203003 736.181763,510.039062 
	C714.861328,497.342712 692.906311,485.993835 668.775146,479.380035 
	C643.954590,472.577301 618.880371,467.904388 592.114380,468.921753 
	C589.740906,469.002258 587.367371,469.082764 584.338318,469.003693 
	C583.894653,469.056641 583.450989,469.109619 582.264771,468.941284 
	C580.529724,468.573395 578.794739,468.205505 576.855835,467.252258 
	C576.514160,466.502686 576.172424,465.753113 575.979675,464.076294 
	C575.984192,442.980560 576.023865,421.884796 575.982788,400.789154 
	C575.947144,382.524292 575.819824,364.259644 575.922729,345.103882 
	C575.854431,342.071136 575.786133,339.038391 575.914062,335.086090 
	C575.938660,314.659637 575.966370,294.233185 575.986694,273.806732 
	C576.002563,257.872589 576.009155,241.938431 576.243713,225.089767 
	C576.272522,219.939087 576.278687,214.788162 576.335205,209.637787 
	C576.431152,200.894485 580.930054,197.892181 589.141357,202.009262 
	C589.370056,206.600952 589.802917,211.192902 589.796936,215.784286 
	C589.696167,293.369080 589.540771,370.953735 589.398193,448.538452 
	C589.393738,450.972565 589.397644,453.406647 589.397644,456.187500 
	C591.724365,456.070557 593.354614,455.988586 595.909668,456.078674 
	C647.666016,455.867889 695.196472,470.160950 739.083496,498.863190 
	C739.083496,496.574188 739.085144,495.418640 739.083191,494.263092 
	C739.037598,467.267059 738.980774,440.271057 738.948120,413.275024 
	C738.881409,358.116364 738.757629,302.957581 738.875671,247.799301 
	C738.887573,242.231125 737.451172,238.125519 732.603333,235.364090 
	C721.198608,228.867615 710.269897,221.278198 698.305176,216.067825 
	C654.378357,196.938477 607.445862,190.901810 560.335938,185.952011 
	C556.074341,185.504257 555.462341,187.580185 556.068542,191.882065 
	C556.058167,237.210007 556.053772,282.537964 556.035767,327.865906 
	C556.015320,379.192871 556.029968,430.519958 555.870361,481.846497 
	C555.856812,486.215790 557.021851,487.815155 561.581604,488.283630 
	C595.210632,491.739075 628.822998,495.371277 662.409363,499.220367 
	C680.273071,501.267548 698.089539,503.753937 715.887390,506.319366 
	C718.432800,506.686279 721.734741,507.987793 722.995667,509.945770 
	C727.087158,516.298767 732.944275,519.633728 739.817200,521.618225 
	C750.361572,524.662781 763.825562,520.630127 768.440918,512.531982 
	C770.718750,508.535278 773.724182,506.815094 777.887512,506.264099 
	C796.209167,503.839172 814.505615,501.198303 832.859741,499.050262 
	C863.620483,495.450287 894.418213,492.166016 926.099060,488.824066 
	C928.742737,488.552643 931.380981,488.166473 934.031616,488.039825 
	C937.099915,487.893280 938.449036,486.611298 938.369141,483.381836 
	C938.143127,474.249512 938.144104,465.111572 938.292480,455.128601 
	C938.209229,453.087372 938.125977,451.046143 938.253479,448.087311 
	C938.208191,438.387268 938.162903,428.687256 938.379700,418.223480 
	C938.299561,417.162659 938.219482,416.101807 938.384949,414.195282 
	C938.305786,412.445618 938.226562,410.695923 938.242798,408.278015 
	C938.106750,407.849060 937.970642,407.420135 937.970520,406.068176 
	C937.926636,401.386292 937.882751,396.704407 938.039368,391.369385 
	C938.079529,390.927185 938.119690,390.485016 938.402649,389.216705 
	C938.320007,387.794312 938.237366,386.371918 938.419128,384.238953 
	C938.329651,383.497528 938.240173,382.756104 938.394531,381.106995 
	C938.344971,372.737366 938.295410,364.367737 938.484314,355.403778 
	C938.406067,355.205170 938.327820,355.006561 938.511169,354.226898 
	C938.425110,353.820587 938.339111,353.414307 938.552368,352.157074 
	C938.458679,349.767456 938.364990,347.377838 938.546875,344.089996 
	C938.564758,323.174164 938.622803,302.258270 938.583984,281.342529 
	C938.564026,270.563812 938.371765,259.785431 938.565918,248.242355 
	C938.473938,247.160965 938.381958,246.079590 938.561035,244.096603 
	C938.561035,224.841522 938.561035,205.586441 938.561035,185.421677 
	C930.085266,186.297394 922.037720,187.128876 913.318604,187.817032 
	C912.875305,187.920013 912.432007,188.023010 911.497986,188.003723 
	C911.341248,188.065933 911.184570,188.128128 910.263306,188.075424 
	C908.479492,188.399445 906.695679,188.723465 904.068115,188.899292 
	C888.147034,191.575745 872.137939,193.817047 856.322937,197.017776 
	C821.597656,204.045639 788.911926,216.472778 758.605286,235.035126 
	C753.783508,237.988388 751.987183,241.352783 752.011169,247.057541 
	C752.355652,329.048859 752.458679,411.041168 752.636841,493.033203 
	C752.639465,494.253510 752.858032,495.473358 753.045471,497.414642 
	C798.075928,468.101776 847.181702,455.567444 900.309692,456.526093 
	C900.309692,453.826660 900.310669,451.855957 900.309509,449.885284 
	C900.263123,369.395050 900.242981,288.904785 900.109253,208.414703 
	C900.100586,203.209274 901.409790,199.581894 907.607361,198.975204 
	C908.146301,199.084778 908.685303,199.194336 909.534485,199.825409 
	C910.056030,200.116760 910.577576,200.408112 911.203918,200.848526 
z"/>
<path fill="#F4F4F7" opacity="1.000000" stroke="none" 
	d="
M973.858398,604.254639 
	C978.292847,616.913086 982.554749,629.235596 986.816650,641.558167 
	C987.172607,641.532654 987.528564,641.507141 987.884583,641.481628 
	C990.630249,632.124451 993.324829,622.751892 996.149780,613.418701 
	C997.109985,610.246338 998.089539,607.011719 999.614624,604.095459 
	C1001.551453,600.391968 1005.783203,599.307251 1009.553101,601.028931 
	C1013.550110,602.854309 1014.109070,606.105408 1012.849426,609.796692 
	C1007.640564,625.061462 1002.347107,640.297485 997.046204,655.530640 
	C995.350647,660.403076 992.157349,663.180298 986.690857,663.304871 
	C981.084473,663.432617 978.570129,659.979187 977.055725,655.489197 
	C974.239990,647.141174 971.696716,638.701416 969.030701,630.302734 
	C968.452942,628.482605 967.836487,626.674866 966.145874,624.929260 
	C963.772766,632.475952 961.436768,640.034607 959.008179,647.563416 
	C958.039917,650.565063 957.001282,653.558472 955.756042,656.453003 
	C953.824402,660.943115 950.514587,663.850281 945.407227,663.710022 
	C940.199646,663.567139 937.323853,660.251343 935.796631,655.611816 
	C932.521484,645.662170 929.288452,635.698608 926.086609,625.725098 
	C924.561157,620.973389 923.089478,616.202759 921.695007,611.411133 
	C919.810486,604.935486 920.946472,601.993896 925.759338,600.495667 
	C930.529907,599.010498 933.941345,601.256897 935.779053,607.430542 
	C938.911438,617.953491 941.888184,628.522766 944.946533,639.067810 
	C945.212708,639.985413 945.599426,640.868042 946.350037,642.907593 
	C949.617981,633.349670 952.524902,624.843323 955.435242,616.338135 
	C956.512695,613.189148 957.487732,609.999634 958.701599,606.903992 
	C961.730713,599.179260 967.909119,597.979736 973.858398,604.254639 
z"/>
<path fill="#F4F3F7" opacity="1.000000" stroke="none" 
	d="
M556.059570,662.998901 
	C540.083557,659.232849 531.399780,648.513245 530.442932,631.837952 
	C529.637146,617.794006 536.867004,606.556274 549.747559,601.832031 
	C566.823853,595.568848 585.060608,604.289062 589.273804,620.747559 
	C589.561401,621.871033 589.793762,623.024780 589.891846,624.178101 
	C590.625549,632.809021 588.477905,635.500854 579.804810,635.728943 
	C569.985352,635.987244 560.153748,635.780212 550.327393,635.775635 
	C549.009521,635.775024 547.691650,635.775513 545.745911,635.775513 
	C546.519470,641.691223 549.246460,645.982178 554.221375,648.430786 
	C561.465942,651.996399 568.675476,651.741760 575.489014,646.970947 
	C578.162842,645.098633 580.902588,643.561035 584.069092,646.224121 
	C588.370667,649.841919 588.168396,654.481384 583.298401,657.784668 
	C575.130432,663.325012 565.992920,664.217346 556.059570,662.998901 
M558.228333,612.655640 
	C549.857849,614.613220 546.335266,618.050842 545.954224,624.811768 
	C555.819397,624.811768 565.671692,624.811768 575.581909,624.811768 
	C573.973328,615.882385 569.087341,612.337585 558.228333,612.655640 
z"/>
<path fill="#F4F4F7" opacity="1.000000" stroke="none" 
	d="
M615.338562,625.172424 
	C622.682373,625.102966 629.609497,625.102966 636.385986,625.102966 
	C637.474915,618.561035 635.230347,614.732239 629.526611,613.128723 
	C623.473145,611.426819 617.630371,612.379944 612.264343,615.627502 
	C609.293884,617.425232 606.381897,618.644531 604.046326,615.094910 
	C601.857178,611.767761 602.397217,608.384521 605.213196,605.569702 
	C606.247742,604.535583 607.547607,603.582336 608.906799,603.087097 
	C619.110352,599.369568 629.399719,598.632874 639.465820,603.376221 
	C646.793335,606.829224 651.129761,612.583191 651.209290,621.004761 
	C651.313049,631.985474 651.396362,642.966370 651.486694,653.947144 
	C651.516663,657.585327 652.204407,661.615845 647.464478,663.024963 
	C643.050659,664.337097 639.601685,662.932678 637.395142,658.440491 
	C630.712219,662.959839 623.266113,665.402222 615.659302,662.917603 
	C610.724548,661.305664 605.382935,658.305603 602.241943,654.332092 
	C593.045105,642.697388 599.056580,629.644836 615.338562,625.172424 
M614.192078,648.012756 
	C619.434753,652.564392 627.037354,652.937866 632.463379,648.946411 
	C636.574219,645.922546 636.792480,641.410767 635.765625,637.306152 
	C635.457031,636.072571 631.166687,635.444824 628.646912,635.256836 
	C625.718506,635.038330 622.653809,635.262939 619.785645,635.907166 
	C613.558228,637.306030 611.748413,640.974121 614.192078,648.012756 
z"/>
<path fill="#F4F4F7" opacity="1.000000" stroke="none" 
	d="
M851.761719,635.454163 
	C850.780701,620.847290 855.961487,609.533142 868.930115,603.398315 
	C882.013550,597.209229 895.133240,598.541565 906.256592,608.272949 
	C915.996643,616.794128 919.074524,628.125000 915.630493,640.493408 
	C912.345093,652.292297 904.075073,660.042480 892.152893,662.713013 
	C871.836182,667.263855 854.663452,655.555237 851.761719,635.454163 
M899.916077,641.124634 
	C900.445679,639.911072 901.177673,638.744324 901.471558,637.476196 
	C903.153076,630.220459 902.187561,623.382812 896.486084,618.255127 
	C890.787170,613.129822 883.980835,611.550964 876.613159,614.668091 
	C869.374084,617.730957 866.197998,623.655029 865.797791,631.142944 
	C865.341309,639.684937 869.731873,646.277161 877.294373,649.034180 
	C886.022705,652.216125 893.321106,649.833862 899.916077,641.124634 
z"/>
<path fill="#F5F5F8" opacity="1.000000" stroke="none" 
	d="
M767.897278,636.000427 
	C767.913269,642.829346 767.986084,649.158875 767.930298,655.487305 
	C767.885681,660.554199 765.099060,663.477783 760.450012,663.556274 
	C755.814575,663.634521 752.995728,660.771118 752.950439,655.660583 
	C752.867737,646.334229 753.008728,637.005127 752.861755,627.680298 
	C752.721375,618.773987 748.570618,614.016602 741.173218,613.881531 
	C733.078369,613.733643 727.411621,619.014038 727.157471,627.481750 
	C726.892883,636.300903 727.076416,645.133179 727.035217,653.959595 
	C727.006104,660.195312 724.027893,663.622375 718.792786,663.519043 
	C713.888672,663.422302 711.684204,660.515259 711.691223,654.266907 
	C711.707642,639.610352 711.728210,624.953674 711.678284,610.297302 
	C711.664307,606.191772 711.362976,602.051086 716.767395,600.973572 
	C721.790955,599.971985 725.225891,601.695923 726.341736,607.045166 
	C737.307983,598.616821 749.275146,597.896545 759.163147,605.082886 
	C764.671326,609.086060 768.186890,614.288391 767.937195,621.510925 
	C767.776245,626.169006 767.901550,630.837036 767.897278,636.000427 
z"/>
<path fill="#F4F4F7" opacity="1.000000" stroke="none" 
	d="
M800.427917,634.001099 
	C800.485962,640.832031 800.576294,647.162903 800.588013,653.493835 
	C800.600952,660.495239 798.272339,663.498352 793.029541,663.386597 
	C788.082642,663.281250 785.891479,660.175110 785.911743,653.564819 
	C785.951843,640.434937 785.923523,627.304871 785.923523,614.194641 
	C776.517578,613.664917 774.067200,612.266663 774.128235,607.617981 
	C774.193176,602.672119 777.039429,600.982361 786.111328,600.735962 
	C786.111328,598.449829 785.993835,596.141357 786.131897,593.848328 
	C786.695923,584.479248 792.719177,578.437439 802.085327,577.936829 
	C805.237732,577.768372 808.425964,577.787842 811.568726,578.059143 
	C814.634460,578.323730 817.015747,579.724121 817.077393,583.299255 
	C817.138245,586.828186 815.304199,588.890198 811.925171,589.617859 
	C811.120361,589.791260 810.271057,589.780212 809.440674,589.809509 
	C800.714233,590.116882 799.828186,591.181702 800.778259,601.045837 
	C803.610718,601.045837 806.531250,601.077637 809.450806,601.038269 
	C813.659668,600.981506 816.700073,602.352783 816.855957,607.133057 
	C816.994202,611.373535 814.491699,613.714417 809.473816,613.979675 
	C806.833130,614.119202 804.178955,614.004272 800.425476,614.004272 
	C800.425476,620.689392 800.425476,627.095215 800.427917,634.001099 
z"/>
<path fill="#F5F5F8" opacity="1.000000" stroke="none" 
	d="
M510.994629,649.036133 
	C515.159058,649.066040 518.827271,649.186340 522.490540,649.098694 
	C525.925842,649.016602 528.457214,650.144897 529.009155,653.785339 
	C529.594116,657.643494 528.359558,660.777039 524.406738,662.135437 
	C522.873230,662.662415 521.155945,662.844666 519.520447,662.854309 
	C508.522186,662.919006 497.523224,662.934387 486.524841,662.884766 
	C480.201263,662.856201 477.737030,660.460693 477.722321,654.117004 
	C477.670532,631.786377 477.681244,609.455444 477.741638,587.124817 
	C477.756927,581.471313 480.529205,578.384949 485.131226,578.482544 
	C489.651123,578.578308 492.121002,581.677185 492.126740,587.427368 
	C492.146942,607.738586 492.134613,628.049866 492.134613,649.035767 
	C498.300171,649.035767 504.398224,649.035767 510.994629,649.036133 
z"/>
<path fill="#F2F2F5" opacity="1.000000" stroke="none" 
	d="
M840.920837,610.029053 
	C840.851379,623.497986 840.808411,636.967163 840.689636,650.435669 
	C840.666260,653.083862 840.694885,655.811890 840.087219,658.356873 
	C839.189148,662.118469 836.167603,663.807251 832.542664,663.519348 
	C828.717590,663.215454 825.771179,661.113831 825.770874,656.888428 
	C825.769043,632.759399 825.868103,608.630127 826.028992,584.501587 
	C826.055237,580.563660 828.590759,578.403320 832.309570,578.017761 
	C836.876221,577.544434 839.430176,580.071655 840.540283,585.123840 
	C840.731445,593.930359 840.826172,601.979736 840.920837,610.029053 
z"/>
<path fill="#F4F3F7" opacity="1.000000" stroke="none" 
	d="
M667.541138,662.507568 
	C666.193115,660.163574 664.298828,658.024048 664.288330,655.875305 
	C664.211365,640.075195 664.396423,624.270813 664.750427,608.473328 
	C664.884521,602.488892 669.407104,599.034180 674.766296,601.052368 
	C677.156677,601.952637 678.778137,604.894775 680.909424,607.074646 
	C684.287720,602.347534 689.543640,600.222473 695.950806,600.630859 
	C699.362366,600.848328 701.735046,602.159912 702.069275,605.827881 
	C702.407410,609.539124 701.814209,612.880920 697.762512,614.404175 
	C696.999207,614.691101 696.159912,614.809021 695.343994,614.918091 
	C683.645813,616.481689 679.344482,621.344177 679.316467,633.247375 
	C679.300049,640.232727 679.513794,647.218933 679.478638,654.203979 
	C679.438965,662.093323 675.612061,664.838623 667.541138,662.507568 
z"/>
<path fill="#15132F" opacity="1.000000" stroke="none" 
	d="
M953.193115,436.924683 
	C952.727905,429.236511 952.593689,421.440125 952.595581,413.643768 
	C952.601562,388.393280 952.657593,363.142822 952.803345,337.432373 
	C953.276184,338.865540 953.951294,340.757782 953.956787,342.651978 
	C954.028809,367.438171 953.952087,392.224792 954.051758,417.010773 
	C954.072388,422.134430 954.782837,427.252838 954.910461,432.380219 
	C954.947021,433.847107 954.053528,435.337128 953.193115,436.924683 
z"/>
<path fill="#15132F" opacity="1.000000" stroke="none" 
	d="
M953.205383,248.718018 
	C952.806885,227.637421 952.689453,206.244873 952.639954,184.380707 
	C953.136841,185.107208 953.935181,186.303986 953.939575,187.503693 
	C954.011597,207.166519 953.988037,226.829712 953.957092,246.492783 
	C953.956116,247.130798 953.650208,247.768326 953.205383,248.718018 
z"/>
<path fill="#15132F" opacity="1.000000" stroke="none" 
	d="
M953.144653,463.932922 
	C952.670227,457.985229 952.596313,451.931458 952.651367,445.421570 
	C953.230347,445.149078 954.076355,445.340912 954.072754,445.515137 
	C953.946350,451.620087 953.740112,457.723389 953.144653,463.932922 
z"/>
<path fill="#15132F" opacity="1.000000" stroke="none" 
	d="
M953.352356,268.892365 
	C952.888916,263.975372 952.806458,258.937592 952.828064,253.441101 
	C953.581360,253.623032 954.814941,254.290436 954.786987,254.899994 
	C954.574707,259.530212 954.115601,264.149109 953.352356,268.892365 
z"/>
<path fill="#15132F" opacity="1.000000" stroke="none" 
	d="
M953.189575,321.722290 
	C952.850342,313.987701 952.795349,305.943420 952.847656,297.439209 
	C953.127869,305.123749 953.300842,313.268158 953.189575,321.722290 
z"/>
<path fill="#15132F" opacity="1.000000" stroke="none" 
	d="
M841.202698,609.717957 
	C840.826172,601.979736 840.731445,593.930359 840.729248,585.416748 
	C841.215332,587.988342 841.899109,591.020447 841.937622,594.060791 
	C842.002502,599.173401 841.657288,604.291199 841.202698,609.717957 
z"/>
<path fill="#15132F" opacity="1.000000" stroke="none" 
	d="
M952.665588,486.951965 
	C952.357666,485.358337 952.400940,483.583435 952.574951,481.383911 
	C956.743591,482.685852 954.692749,484.738312 952.665588,486.951965 
z"/>
<path fill="#127E8D" opacity="1.000000" stroke="none" 
	d="
M907.083801,198.799850 
	C901.409790,199.581894 900.100586,203.209274 900.109253,208.414703 
	C900.242981,288.904785 900.263123,369.395050 900.309509,449.885284 
	C900.310669,451.855957 900.309692,453.826660 900.309692,456.526093 
	C847.181702,455.567444 798.075928,468.101776 753.045471,497.414642 
	C752.858032,495.473358 752.639465,494.253510 752.636841,493.033203 
	C752.458679,411.041168 752.355652,329.048859 752.011169,247.057541 
	C751.987183,241.352783 753.783508,237.988388 758.605286,235.035126 
	C788.911926,216.472778 821.597656,204.045639 856.322937,197.017776 
	C872.137939,193.817047 888.147034,191.575745 904.537659,189.351746 
	C905.699402,192.802765 906.391602,195.801300 907.083801,198.799850 
M787.385254,420.906250 
	C784.543213,423.212433 781.390442,425.245026 779.005676,427.953796 
	C777.991882,429.105316 778.029297,431.907806 778.697144,433.493073 
	C779.007812,434.230225 782.178772,434.414825 783.664429,433.841949 
	C785.599121,433.096008 787.184937,431.393860 788.856506,430.024689 
	C813.956787,409.465912 842.014954,395.373169 874.435425,390.762207 
	C877.532104,390.321777 881.447876,390.127350 880.610840,385.558105 
	C879.849060,381.400177 876.264038,381.672607 872.981567,382.167725 
	C872.158997,382.291779 871.344055,382.466187 870.521912,382.593292 
	C839.411560,387.400909 812.361206,401.052887 787.385254,420.906250 
M821.132690,341.670593 
	C815.829834,344.447205 810.371826,346.967194 805.259216,350.058441 
	C796.866394,355.132996 788.714783,360.605133 780.425232,365.852448 
	C777.568970,367.660522 776.196594,370.316620 778.558105,372.769348 
	C779.574829,373.825317 782.886841,372.952637 785.061462,372.500793 
	C786.255371,372.252716 787.253113,371.058411 788.338257,370.289337 
	C813.841919,352.213776 841.799316,340.048309 872.771240,335.030884 
	C875.904846,334.523224 880.799194,335.138977 880.079590,329.796753 
	C879.353149,324.403198 874.872375,325.919220 871.321594,326.225281 
	C870.662659,326.282074 870.017761,326.488190 869.362793,326.605225 
	C852.902527,329.547668 837.063782,334.496490 821.132690,341.670593 
M818.182800,285.672791 
	C809.826416,290.133789 801.361206,294.405670 793.155457,299.128418 
	C788.418030,301.855011 783.897888,305.069031 779.712402,308.579315 
	C778.420532,309.662811 778.554382,312.446381 778.035461,314.451599 
	C779.930115,314.600494 782.098206,315.406067 783.660034,314.755707 
	C786.533630,313.559204 789.082703,311.554474 791.711182,309.802765 
	C815.363464,294.040100 841.186157,284.108704 869.477600,280.777374 
	C871.789734,280.505127 874.320862,280.616119 876.323425,279.657410 
	C877.936768,278.885010 880.010010,276.645355 879.861938,275.274597 
	C879.699646,273.771942 877.390442,272.220245 875.691650,271.273163 
	C874.721619,270.732330 873.096680,271.300171 871.777832,271.460693 
	C853.511414,273.683685 835.849609,278.220795 818.182800,285.672791 
M855.951355,366.279083 
	C862.641846,364.946655 869.386169,363.823639 875.982483,362.125122 
	C877.509094,361.732056 878.529419,359.372650 879.782654,357.918030 
	C878.226074,356.668549 876.811951,355.121246 875.058777,354.282867 
	C874.030823,353.791321 872.455566,354.377655 871.138977,354.566193 
	C845.481873,358.240295 822.127808,368.080231 800.245850,381.566284 
	C792.898193,386.094757 786.019775,391.422821 779.213562,396.751556 
	C778.158020,397.577942 778.025085,400.636963 778.666138,402.157227 
	C779.016968,402.989319 782.018616,403.280365 783.575500,402.869720 
	C785.228149,402.433807 786.619019,400.921814 788.066772,399.805298 
	C808.225830,384.258606 830.521301,373.024384 855.951355,366.279083 
M853.013855,311.472992 
	C860.697998,310.087097 868.375916,308.665070 876.069458,307.333282 
	C879.106628,306.807526 880.810242,304.870667 879.929993,302.158630 
	C879.457581,300.703156 877.052124,299.308136 875.310425,298.974487 
	C873.115479,298.554047 870.687744,299.118805 868.394409,299.476257 
	C840.376709,303.842987 814.530518,313.843964 790.891663,329.510132 
	C787.428162,331.805481 784.079468,334.273346 780.658020,336.632965 
	C778.182556,338.340210 776.726990,340.479797 778.581299,343.343231 
	C780.543030,346.372528 782.894531,344.772552 785.030823,343.397491 
	C787.126831,342.048370 789.148682,340.584442 791.210388,339.181580 
	C809.931824,326.442719 829.968262,316.620880 853.013855,311.472992 
z"/>
<path fill="#1D1B44" opacity="1.000000" stroke="none" 
	d="
M588.902588,201.222214 
	C580.930054,197.892181 576.431152,200.894485 576.335205,209.637787 
	C576.278687,214.788162 576.272522,219.939087 575.741882,225.570328 
	C574.581299,227.446106 573.453552,228.813385 573.368408,230.242783 
	C573.223389,232.677841 574.010437,235.162903 573.913818,237.607529 
	C573.672302,243.717972 573.224731,249.823273 572.720947,255.919159 
	C572.434998,259.379730 571.875488,262.817719 571.439209,266.265869 
	C570.933777,266.251465 570.428345,266.237061 569.922913,266.222687 
	C569.614685,257.815521 569.306519,249.408340 568.999146,240.750916 
	C569.000000,240.500671 569.000610,240.000763 569.239380,239.742691 
	C568.647766,237.329788 567.817383,235.174973 566.651855,233.070114 
	C565.211182,234.415207 564.105591,235.710327 562.670898,237.086823 
	C560.402588,238.792938 560.520142,240.082031 562.974854,241.392502 
	C562.976074,242.864349 562.968140,243.934921 562.582458,244.984924 
	C558.836060,244.153351 557.951538,241.794617 557.973206,238.619781 
	C558.074341,223.814926 558.126099,209.009277 558.048706,194.204681 
	C558.043091,193.133011 556.866028,192.067490 556.233643,190.999100 
	C555.462341,187.580185 556.074341,185.504257 560.335938,185.952011 
	C607.445862,190.901810 654.378357,196.938477 698.305176,216.067825 
	C710.269897,221.278198 721.198608,228.867615 732.603333,235.364090 
	C737.451172,238.125519 738.887573,242.231125 738.875671,247.799301 
	C738.757629,302.957581 738.881409,358.116364 738.948120,413.275024 
	C738.980774,440.271057 739.037598,467.267059 739.083191,494.263092 
	C739.085144,495.418640 739.083496,496.574188 739.083496,498.863190 
	C695.196472,470.160950 647.666016,455.867889 595.368713,455.668518 
	C590.064453,452.410248 591.048035,447.626099 591.044373,443.351959 
	C590.985779,375.267029 590.987671,307.182037 591.046814,239.097092 
	C591.050232,235.137085 591.773743,231.183044 591.961792,227.216705 
	C592.311768,219.833496 592.573425,212.444672 592.744202,205.055222 
	C592.799988,202.637329 593.052551,199.611023 588.902588,201.222214 
M635.880188,308.620728 
	C641.270691,316.609528 646.480164,324.728821 652.112000,332.543640 
	C656.223389,338.248688 656.486328,344.033997 653.151978,349.815002 
	C650.425293,354.542480 646.593689,358.631805 643.857544,363.354889 
	C638.800232,372.084717 633.149231,380.683502 629.646423,390.047913 
	C625.109863,402.175659 630.445007,412.087830 642.432251,416.998138 
	C654.535095,421.955719 667.042847,422.708008 679.594971,419.147461 
	C692.431396,415.506256 698.411133,406.568359 695.962585,393.498566 
	C694.766541,387.114166 691.962219,380.807526 688.793091,375.069183 
	C684.146423,366.655182 678.448792,358.826843 673.332764,350.665070 
	C669.408142,344.404053 670.286804,338.327576 674.527222,332.528870 
	C677.570435,328.367371 680.673462,324.246185 683.602783,320.005432 
	C691.045837,309.230255 697.022278,297.752747 698.967346,284.628906 
	C700.776184,272.424286 695.945068,263.422913 684.654907,258.425446 
	C670.529785,252.173096 656.101868,252.251343 641.995911,258.396454 
	C630.106201,263.576111 624.966003,273.370514 627.870117,285.924103 
	C629.613953,293.462189 632.903015,300.642853 635.880188,308.620728 
M621.833618,330.403137 
	C623.878662,329.092010 625.923767,327.780884 627.816772,326.567230 
	C625.526611,318.750031 620.342896,321.265411 612.022949,329.035980 
	C614.276001,334.020294 614.704102,334.102539 621.833618,330.403137 
M619.773743,263.940979 
	C620.318054,262.425079 621.704285,259.926392 621.269226,259.553680 
	C618.558228,257.231171 615.576904,255.096146 612.366943,253.567017 
	C611.478821,253.143982 609.210632,254.734543 608.183594,255.925522 
	C607.778076,256.395782 608.677002,258.884521 609.595093,259.438965 
	C612.625671,261.269104 615.936279,262.635620 619.773743,263.940979 
M720.179626,259.572357 
	C720.490845,258.041412 721.526001,255.610840 720.967102,255.161057 
	C719.682861,254.127518 717.335754,253.267715 715.940613,253.773438 
	C713.525208,254.648972 711.274292,256.381287 709.418457,258.222137 
	C708.528381,259.105042 707.970825,261.775146 708.552063,262.364716 
	C709.536804,263.363678 711.752808,264.029633 713.075378,263.620514 
	C715.397461,262.902252 717.435608,261.266205 720.179626,259.572357 
M701.157898,323.113464 
	C699.697021,323.799896 698.085938,324.300842 696.867920,325.287079 
	C696.508301,325.578339 696.917725,327.771545 697.558655,328.182678 
	C700.460449,330.044037 703.457336,331.896057 706.671265,333.053528 
	C707.738403,333.437836 709.556824,331.736328 711.031738,330.988373 
	C710.314453,329.692352 709.902039,327.973267 708.815186,327.190277 
	C706.692749,325.661255 704.193359,324.655487 701.157898,323.113464 
z"/>
<path fill="#1D1F47" opacity="1.000000" stroke="none" 
	d="
M556.151123,191.440582 
	C556.866028,192.067490 558.043091,193.133011 558.048706,194.204681 
	C558.126099,209.009277 558.074341,223.814926 557.973206,238.619781 
	C557.951538,241.794617 558.836060,244.153351 562.594910,245.423218 
	C562.801697,247.665863 562.438110,249.452484 562.466003,251.232971 
	C562.590271,259.167816 562.826355,267.100891 563.036438,275.444885 
	C563.032288,277.227936 563.013794,278.600708 562.854980,280.076355 
	C562.664978,280.282867 562.546692,280.421783 562.578430,280.483673 
	C562.678528,280.678711 562.834961,280.844818 562.984619,281.456238 
	C562.977478,283.916443 562.955139,285.942535 562.563599,288.105713 
	C561.798462,290.264862 561.059692,292.286469 561.056763,294.309113 
	C560.988708,341.200378 561.029358,388.091797 560.962219,434.983063 
	C560.953552,441.045197 560.254822,447.106720 560.257080,453.168365 
	C560.259216,458.952484 560.682922,464.742188 561.122925,470.514099 
	C561.189453,471.387115 562.351013,472.176666 563.083984,473.341858 
	C565.943604,475.488800 568.512512,477.952332 571.560486,478.944641 
	C575.447998,480.210297 579.714355,480.727448 583.831848,480.805634 
	C613.354797,481.366425 642.382080,486.149292 671.436768,490.756561 
	C674.927124,491.310059 678.451538,491.649628 681.960144,492.088348 
	C669.701538,485.452698 656.477356,482.666199 642.905640,480.378357 
	C640.032227,479.046997 637.358154,477.570557 634.515991,477.091522 
	C625.396912,475.554565 616.249329,473.909119 607.045349,473.259735 
	C601.757568,472.886719 596.339661,474.358795 590.567932,475.013367 
	C588.782349,474.972504 587.409180,474.918518 585.954895,474.565308 
	C584.911560,473.519226 583.949280,472.772369 582.990356,471.667633 
	C582.998230,470.594025 583.002808,469.878326 583.007324,469.162598 
	C583.450989,469.109619 583.894653,469.056641 584.782227,469.421387 
	C587.815063,469.583008 590.403992,469.326965 592.992920,469.070923 
	C618.880371,467.904388 643.954590,472.577301 668.775146,479.380035 
	C692.906311,485.993835 714.861328,497.342712 736.181763,510.039062 
	C743.174072,514.203003 748.942322,513.792175 755.952759,509.401215 
	C784.965881,491.228882 816.171448,478.384369 850.823120,473.214478 
	C852.648438,473.069214 853.826111,472.657013 855.003784,472.244843 
	C856.057373,472.061523 857.111023,471.878143 858.839233,472.044434 
	C861.449402,472.397797 863.387451,472.338318 865.319763,472.419006 
	C868.883240,472.567688 872.443359,472.798645 875.713684,473.251404 
	C867.077332,474.681519 858.693970,475.640350 850.401550,477.111755 
	C845.549988,477.972626 840.190063,478.189758 836.655518,483.087097 
	C835.213135,483.418243 834.106445,483.681030 832.887634,483.816040 
	C832.509277,483.809204 832.243164,483.930084 831.629883,484.085571 
	C830.587891,484.180298 829.892883,484.240448 828.977112,484.026245 
	C822.549622,485.074127 816.324463,486.321289 810.165894,487.838623 
	C809.573242,487.984650 809.394348,489.809753 808.772400,490.965942 
	C808.456055,491.327728 808.370422,491.576996 808.344971,491.832245 
	C808.340637,491.875732 808.595947,491.998505 808.728455,491.994324 
	C811.457153,491.908478 814.185425,491.809540 816.932251,492.029053 
	C816.959534,492.555756 816.968445,492.766510 816.709900,492.986359 
	C815.989990,493.094971 815.537415,493.194489 815.084900,493.293976 
	C815.158264,493.506226 815.231567,493.718475 815.304871,493.930695 
	C815.873596,493.626465 816.442383,493.322235 817.463074,493.014252 
	C823.265930,492.990082 828.751099,493.496521 833.392944,489.112000 
	C834.832092,488.995453 835.880737,488.930359 837.145020,489.144073 
	C841.478638,495.098755 846.754822,496.905914 852.709351,492.812683 
	C856.899719,489.932190 860.851257,486.816711 865.787109,485.299835 
	C865.904480,485.263794 865.960449,485.027924 866.355713,484.744019 
	C867.777344,484.413818 868.888306,484.224792 870.319946,484.291748 
	C877.317139,484.566742 883.994141,484.539551 890.669678,484.628143 
	C893.217224,484.661926 895.864807,484.574524 898.284424,485.222992 
	C902.756897,486.421631 907.980103,484.857391 910.452698,481.171875 
	C914.932068,480.427124 918.968445,479.718689 923.240906,479.224548 
	C929.283752,478.501434 935.004944,469.926239 934.342346,463.458771 
	C933.464905,454.893707 932.873657,446.298004 931.889099,437.746582 
	C931.733887,436.398468 930.154297,435.214325 929.179565,433.953491 
	C929.125854,433.952606 929.025452,433.990967 929.030640,433.522888 
	C929.013184,377.380463 928.990479,321.706055 929.234497,265.718079 
	C929.297974,255.820663 929.284058,246.224640 928.667114,236.667572 
	C928.584106,235.381546 925.010193,232.976669 923.841064,233.379227 
	C921.248718,234.271851 918.450806,236.187454 919.676514,240.033981 
	C920.168884,241.578979 920.908447,243.148361 920.943970,244.720047 
	C921.352905,262.815948 921.648071,280.914429 921.610840,298.897095 
	C920.501038,295.647156 919.262329,292.539062 919.089966,289.372955 
	C918.235657,273.682159 917.794067,257.968323 916.869263,242.282516 
	C916.703674,239.474014 914.950562,236.759109 913.930420,234.000977 
	C913.848267,230.963043 913.765991,227.925125 914.201294,224.417145 
	C915.469055,223.052368 916.881592,222.141205 916.859863,221.265610 
	C916.737671,216.341995 916.452698,211.402405 915.797302,206.525558 
	C915.625000,205.243973 913.940491,204.165619 912.950439,202.993927 
	C912.950439,202.993912 912.760132,202.906647 912.777588,202.445068 
	C912.322388,201.624039 911.849731,201.264557 911.377075,200.905090 
	C911.377075,200.905090 911.203918,200.848526 911.171143,200.411804 
	C910.500305,199.751343 909.862244,199.527618 909.224243,199.303894 
	C908.685303,199.194336 908.146301,199.084778 907.345581,198.887527 
	C906.391602,195.801300 905.699402,192.802765 904.959534,189.425842 
	C906.695679,188.723465 908.479492,188.399445 910.754272,188.239349 
	C911.245178,188.403290 911.664185,188.431839 911.664185,188.431839 
	C911.664185,188.431839 911.988708,188.125977 911.988708,188.125977 
	C912.432007,188.023010 912.875305,187.920013 913.944092,188.153854 
	C919.635254,188.661041 924.700073,188.872269 929.767029,188.991547 
	C936.233032,189.143753 936.982666,189.837540 936.985901,196.090759 
	C936.993530,210.725998 936.949585,225.361511 937.049744,239.996063 
	C937.061157,241.666199 937.857544,243.330948 938.289978,244.998199 
	C938.381958,246.079590 938.473938,247.160965 938.115845,248.837128 
	C937.441589,250.539322 937.022827,251.646500 937.021545,252.754166 
	C936.986877,282.161896 936.978577,311.569672 937.050354,340.977295 
	C937.053650,342.315216 937.846252,343.651276 938.271240,344.988220 
	C938.364990,347.377838 938.458679,349.767456 938.240662,352.642700 
	C938.035828,353.688202 938.142700,354.248077 938.249573,354.807953 
	C938.327820,355.006561 938.406067,355.205170 938.008179,355.760986 
	C937.029663,356.872223 936.103638,357.619446 936.091309,358.381439 
	C935.979004,365.311737 935.943970,372.246704 936.120728,379.174316 
	C936.145325,380.137756 937.442627,381.068695 938.150757,382.014679 
	C938.240173,382.756104 938.329651,383.497528 938.018677,384.840240 
	C937.798767,386.975281 937.979309,388.509064 938.159851,390.042816 
	C938.119690,390.485016 938.079529,390.927185 937.707764,392.032898 
	C937.528931,397.461334 937.681763,402.226257 937.834595,406.991180 
	C937.970642,407.420135 938.106750,407.849060 937.923645,408.873901 
	C937.782776,411.326874 937.961060,413.183929 938.139343,415.040985 
	C938.219482,416.101807 938.299561,417.162659 937.859131,418.718689 
	C936.902893,420.037994 936.098633,420.857544 936.088562,421.686768 
	C935.989441,429.812653 935.953430,437.941498 936.107605,446.065521 
	C936.126404,447.057190 937.367920,448.025665 938.042725,449.004913 
	C938.125977,451.046143 938.209229,453.087372 937.898682,455.867767 
	C937.333801,463.872406 937.204651,471.139191 936.977722,478.402924 
	C936.812134,483.701080 934.057434,486.448578 928.874573,487.057861 
	C927.601135,487.207642 926.422546,488.163544 925.200378,488.748840 
	C894.418213,492.166016 863.620483,495.450287 832.859741,499.050262 
	C814.505615,501.198303 796.209167,503.839172 777.887512,506.264099 
	C773.724182,506.815094 770.718750,508.535278 768.440918,512.531982 
	C763.825562,520.630127 750.361572,524.662781 739.817200,521.618225 
	C732.944275,519.633728 727.087158,516.298767 722.995667,509.945770 
	C721.734741,507.987793 718.432800,506.686279 715.887390,506.319366 
	C698.089539,503.753937 680.273071,501.267548 662.409363,499.220367 
	C628.822998,495.371277 595.210632,491.739075 561.581604,488.283630 
	C557.021851,487.815155 555.856812,486.215790 555.870361,481.846497 
	C556.029968,430.519958 556.015320,379.192871 556.035767,327.865906 
	C556.053772,282.537964 556.058167,237.210007 556.151123,191.440582 
z"/>
<path fill="#222140" opacity="1.000000" stroke="none" 
	d="
M913.827393,234.459747 
	C914.950562,236.759109 916.703674,239.474014 916.869263,242.282516 
	C917.794067,257.968323 918.235657,273.682159 919.089966,289.372955 
	C919.262329,292.539062 920.501038,295.647156 921.616089,299.294464 
	C921.980347,300.867859 921.976807,301.928802 921.667847,303.054626 
	C920.910278,303.748932 920.458191,304.378326 920.004333,305.474304 
	C919.999573,319.294098 919.996643,332.647369 919.731079,346.321960 
	C919.323669,353.930389 919.114807,361.217468 919.121765,368.504364 
	C919.122498,369.336273 920.331665,370.167053 921.249390,371.004517 
	C921.697571,371.012451 921.876892,371.014282 922.069458,371.483582 
	C922.060364,379.961456 922.038025,387.971832 921.669312,396.073944 
	C920.882874,397.443390 920.442627,398.721069 919.746460,400.300079 
	C919.334229,403.515778 917.290222,406.761200 920.952026,409.424957 
	C920.626648,415.138763 920.203125,420.427704 920.022400,425.724915 
	C919.617371,437.601166 919.429321,449.485809 918.905090,461.356079 
	C918.817383,463.341553 917.713379,465.403473 916.682861,467.203278 
	C913.552063,472.671051 908.203613,472.207245 902.741028,471.757385 
	C900.653442,470.820282 898.829163,470.124176 897.004883,469.428101 
	C900.327209,469.492310 903.651123,469.512054 906.971497,469.630585 
	C912.897705,469.842133 913.940125,468.898468 913.936951,462.841614 
	C913.919434,429.352753 913.875793,395.863892 913.843506,362.375031 
	C913.802612,319.889526 913.764038,277.404022 913.827393,234.459747 
z"/>
<path fill="#1E2544" opacity="1.000000" stroke="none" 
	d="
M568.998291,241.001175 
	C569.306519,249.408340 569.614685,257.815521 569.922913,266.222687 
	C570.428345,266.237061 570.933777,266.251465 571.439209,266.265869 
	C571.875488,262.817719 572.434998,259.379730 572.720947,255.919159 
	C573.224731,249.823273 573.672302,243.717972 573.913818,237.607529 
	C574.010437,235.162903 573.223389,232.677841 573.368408,230.242783 
	C573.453552,228.813385 574.581299,227.446106 575.629944,226.027588 
	C576.009155,241.938431 576.002563,257.872589 575.986694,273.806732 
	C575.966370,294.233185 575.938660,314.659637 575.462402,335.395569 
	C574.673828,333.318451 574.284546,330.937775 574.015076,328.543579 
	C573.757324,326.254272 573.683105,323.944214 573.422668,321.655304 
	C573.038513,318.278656 572.089478,314.895813 572.209229,311.545227 
	C572.604614,300.480743 573.469910,289.433258 573.892029,278.369232 
	C573.956543,276.678955 572.632385,274.935699 571.950500,273.216919 
	C571.295959,273.394073 570.641479,273.571198 569.987000,273.748322 
	C570.766968,300.210846 566.884216,326.797546 572.710266,353.835815 
	C573.901489,350.745819 574.817261,348.370361 575.733032,345.994904 
	C575.819824,364.259644 575.947144,382.524292 575.982788,400.789154 
	C576.023865,421.884796 575.984192,442.980560 575.578247,464.487946 
	C574.120300,464.598114 573.063843,464.296631 572.005981,463.621216 
	C572.005310,462.499268 572.006042,461.751190 572.349304,460.909515 
	C574.749573,458.885345 574.748657,457.247375 572.006042,455.530273 
	C572.001892,449.139648 572.049866,443.216888 571.972229,437.295776 
	C571.939331,434.783661 571.803711,432.161560 568.204834,431.550629 
	C568.122131,425.390686 568.108765,419.694641 568.340576,413.670715 
	C568.387939,408.552277 568.190125,403.761719 567.972351,398.504639 
	C567.914795,345.685333 567.877319,293.332550 568.129395,240.988922 
	C568.612061,240.999115 568.805176,241.000153 568.998291,241.001175 
z"/>
<path fill="#1D1C35" opacity="1.000000" stroke="none" 
	d="
M589.021973,201.615738 
	C593.052551,199.611023 592.799988,202.637329 592.744202,205.055222 
	C592.573425,212.444672 592.311768,219.833496 591.961792,227.216705 
	C591.773743,231.183044 591.050232,235.137085 591.046814,239.097092 
	C590.987671,307.182037 590.985779,375.267029 591.044373,443.351959 
	C591.048035,447.626099 590.064453,452.410248 594.906311,455.582520 
	C593.354614,455.988586 591.724365,456.070557 589.397644,456.187500 
	C589.397644,453.406647 589.393738,450.972565 589.398193,448.538452 
	C589.540771,370.953735 589.696167,293.369080 589.796936,215.784286 
	C589.802917,211.192902 589.370056,206.600952 589.021973,201.615738 
z"/>
<path fill="#1D1B44" opacity="1.000000" stroke="none" 
	d="
M575.827881,345.549377 
	C574.817261,348.370361 573.901489,350.745819 572.710266,353.835815 
	C566.884216,326.797546 570.766968,300.210846 569.987000,273.748322 
	C570.641479,273.571198 571.295959,273.394073 571.950500,273.216919 
	C572.632385,274.935699 573.956543,276.678955 573.892029,278.369232 
	C573.469910,289.433258 572.604614,300.480743 572.209229,311.545227 
	C572.089478,314.895813 573.038513,318.278656 573.422668,321.655304 
	C573.683105,323.944214 573.757324,326.254272 574.015076,328.543579 
	C574.284546,330.937775 574.673828,333.318451 575.364258,335.855347 
	C575.786133,339.038391 575.854431,342.071136 575.827881,345.549377 
z"/>
<path fill="#1D1C35" opacity="1.000000" stroke="none" 
	d="
M938.409058,344.539124 
	C937.846252,343.651276 937.053650,342.315216 937.050354,340.977295 
	C936.978577,311.569672 936.986877,282.161896 937.021545,252.754166 
	C937.022827,251.646500 937.441589,250.539322 937.961548,249.219391 
	C938.371765,259.785431 938.564026,270.563812 938.583984,281.342529 
	C938.622803,302.258270 938.564758,323.174164 938.409058,344.539124 
z"/>
<path fill="#1D1C35" opacity="1.000000" stroke="none" 
	d="
M938.425537,244.547394 
	C937.857544,243.330948 937.061157,241.666199 937.049744,239.996063 
	C936.949585,225.361511 936.993530,210.725998 936.985901,196.090759 
	C936.982666,189.837540 936.233032,189.143753 929.767029,188.991547 
	C924.700073,188.872269 919.635254,188.661041 914.279785,188.225510 
	C922.037720,187.128876 930.085266,186.297394 938.561035,185.421677 
	C938.561035,205.586441 938.561035,224.841522 938.425537,244.547394 
z"/>
<path fill="#1D1F47" opacity="1.000000" stroke="none" 
	d="
M896.549805,469.321777 
	C898.829163,470.124176 900.653442,470.820282 902.479797,472.000000 
	C901.033447,472.543457 899.585510,472.632477 898.136536,472.658264 
	C891.423706,472.777710 884.710571,472.879608 877.998291,472.601929 
	C877.998535,471.444305 877.998047,470.672516 877.997559,469.900757 
	C878.435913,469.790710 878.874207,469.680695 879.735352,469.827698 
	C880.404541,469.961426 880.651001,469.838135 880.897400,469.714813 
	C885.963196,469.548370 891.028992,469.381927 896.549805,469.321777 
z"/>
<path fill="#1D1C35" opacity="1.000000" stroke="none" 
	d="
M938.272644,381.560852 
	C937.442627,381.068695 936.145325,380.137756 936.120728,379.174316 
	C935.943970,372.246704 935.979004,365.311737 936.091309,358.381439 
	C936.103638,357.619446 937.029663,356.872223 937.888916,356.058136 
	C938.295410,364.367737 938.344971,372.737366 938.272644,381.560852 
z"/>
<path fill="#1D1C35" opacity="1.000000" stroke="none" 
	d="
M938.148071,448.546112 
	C937.367920,448.025665 936.126404,447.057190 936.107605,446.065521 
	C935.953430,437.941498 935.989441,429.812653 936.088562,421.686768 
	C936.098633,420.857544 936.902893,420.037994 937.728149,419.100586 
	C938.162903,428.687256 938.208191,438.387268 938.148071,448.546112 
z"/>
<path fill="#222140" opacity="1.000000" stroke="none" 
	d="
M912.994873,203.409241 
	C913.940491,204.165619 915.625000,205.243973 915.797302,206.525558 
	C916.452698,211.402405 916.737671,216.341995 916.859863,221.265610 
	C916.881592,222.141205 915.469055,223.052368 914.306519,223.972778 
	C913.609253,217.273819 913.324341,210.549194 912.994873,203.409241 
z"/>
<path fill="#1D1C35" opacity="1.000000" stroke="none" 
	d="
M925.649719,488.786438 
	C926.422546,488.163544 927.601135,487.207642 928.874573,487.057861 
	C934.057434,486.448578 936.812134,483.701080 936.977722,478.402924 
	C937.204651,471.139191 937.333801,463.872406 937.780273,456.291382 
	C938.144104,465.111572 938.143127,474.249512 938.369141,483.381836 
	C938.449036,486.611298 937.099915,487.893280 934.031616,488.039825 
	C931.380981,488.166473 928.742737,488.552643 925.649719,488.786438 
z"/>
<path fill="#222140" opacity="1.000000" stroke="none" 
	d="
M877.546875,469.830292 
	C877.998047,470.672516 877.998535,471.444305 877.666199,472.605774 
	C876.890564,472.995392 876.447693,472.995361 876.004883,472.995300 
	C872.443359,472.798645 868.883240,472.567688 865.319763,472.419006 
	C863.387451,472.338318 861.449402,472.397797 859.237244,472.105896 
	C865.005798,471.131775 871.051086,470.445801 877.546875,469.830292 
z"/>
<path fill="#1D1F47" opacity="1.000000" stroke="none" 
	d="
M572.007324,463.995117 
	C573.063843,464.296631 574.120300,464.598114 575.503784,464.951569 
	C576.172424,465.753113 576.514160,466.502686 576.942200,467.940063 
	C577.016602,469.418610 577.004639,470.209290 576.624878,470.946381 
	C574.794250,470.610138 573.331482,470.327484 571.629395,469.863159 
	C570.958130,468.783173 570.526123,467.884918 570.415405,466.907288 
	C571.160278,465.883667 571.583801,464.939392 572.007324,463.995117 
z"/>
<path fill="#1E2544" opacity="1.000000" stroke="none" 
	d="
M576.992676,471.000000 
	C577.004639,470.209290 577.016602,469.418610 577.044128,468.232788 
	C578.794739,468.205505 580.529724,468.573395 582.636047,469.051941 
	C583.002808,469.878326 582.998230,470.594025 582.662781,471.665283 
	C581.894958,472.020752 581.458008,472.020660 580.763000,471.773407 
	C579.336609,471.352905 578.168335,471.179535 577.000000,471.003113 
	C577.000000,471.000000 576.992676,471.000000 576.992676,471.000000 
z"/>
<path fill="#1D1C35" opacity="1.000000" stroke="none" 
	d="
M937.902588,406.529663 
	C937.681763,402.226257 937.528931,397.461334 937.607422,392.359467 
	C937.882751,396.704407 937.926636,401.386292 937.902588,406.529663 
z"/>
<path fill="#1E2544" opacity="1.000000" stroke="none" 
	d="
M592.553650,468.996338 
	C590.403992,469.326965 587.815063,469.583008 585.109985,469.501160 
	C587.367371,469.082764 589.740906,469.002258 592.553650,468.996338 
z"/>
<path fill="#1D1C35" opacity="1.000000" stroke="none" 
	d="
M938.262146,414.618134 
	C937.961060,413.183929 937.782776,411.326874 937.875916,409.208038 
	C938.226562,410.695923 938.305786,412.445618 938.262146,414.618134 
z"/>
<path fill="#222140" opacity="1.000000" stroke="none" 
	d="
M854.661621,472.200867 
	C853.826111,472.657013 852.648438,473.069214 851.238037,473.254578 
	C852.110046,472.737427 853.214783,472.447174 854.661621,472.200867 
z"/>
<path fill="#1D1C35" opacity="1.000000" stroke="none" 
	d="
M938.281250,389.629761 
	C937.979309,388.509064 937.798767,386.975281 937.886475,385.195526 
	C938.237366,386.371918 938.320007,387.794312 938.281250,389.629761 
z"/>
<path fill="#1D1C35" opacity="1.000000" stroke="none" 
	d="
M938.380371,354.517426 
	C938.142700,354.248077 938.035828,353.688202 938.091064,353.068176 
	C938.339111,353.414307 938.425110,353.820587 938.380371,354.517426 
z"/>
<path fill="#222140" opacity="1.000000" stroke="none" 
	d="
M911.493042,201.176819 
	C911.849731,201.264557 912.322388,201.624039 912.793945,202.341675 
	C912.398315,202.282745 912.003662,201.865646 911.493042,201.176819 
z"/>
<path fill="#222140" opacity="1.000000" stroke="none" 
	d="
M909.379395,199.564651 
	C909.862244,199.527618 910.500305,199.751343 911.118713,200.337265 
	C910.577576,200.408112 910.056030,200.116760 909.379395,199.564651 
z"/>
<path fill="#222140" opacity="1.000000" stroke="none" 
	d="
M880.658569,469.632477 
	C880.651001,469.838135 880.404541,469.961426 880.063232,469.930786 
	C880.118774,469.701263 880.269287,469.625702 880.658569,469.632477 
z"/>
<path fill="#1D1C35" opacity="1.000000" stroke="none" 
	d="
M911.743347,188.064850 
	C911.988708,188.125977 911.664185,188.431839 911.664185,188.431839 
	C911.664185,188.431839 911.245178,188.403290 911.136597,188.296814 
	C911.184570,188.128128 911.341248,188.065933 911.743347,188.064850 
z"/>
<path fill="#252348" opacity="1.000000" stroke="none" 
	d="
M558.617432,612.574280 
	C569.087341,612.337585 573.973328,615.882385 575.581909,624.811768 
	C565.671692,624.811768 555.819397,624.811768 545.954224,624.811768 
	C546.335266,618.050842 549.857849,614.613220 558.617432,612.574280 
z"/>
<path fill="#252348" opacity="1.000000" stroke="none" 
	d="
M613.945740,647.695496 
	C611.748413,640.974121 613.558228,637.306030 619.785645,635.907166 
	C622.653809,635.262939 625.718506,635.038330 628.646912,635.256836 
	C631.166687,635.444824 635.457031,636.072571 635.765625,637.306152 
	C636.792480,641.410767 636.574219,645.922546 632.463379,648.946411 
	C627.037354,652.937866 619.434753,652.564392 613.945740,647.695496 
z"/>
<path fill="#1E1C44" opacity="1.000000" stroke="none" 
	d="
M899.720947,641.450989 
	C893.321106,649.833862 886.022705,652.216125 877.294373,649.034180 
	C869.731873,646.277161 865.341309,639.684937 865.797791,631.142944 
	C866.197998,623.655029 869.374084,617.730957 876.613159,614.668091 
	C883.980835,611.550964 890.787170,613.129822 896.486084,618.255127 
	C902.187561,623.382812 903.153076,630.220459 901.471558,637.476196 
	C901.177673,638.744324 900.445679,639.911072 899.720947,641.450989 
z"/>
<path fill="#E2F6F8" opacity="1.000000" stroke="none" 
	d="
M787.674438,420.695801 
	C812.361206,401.052887 839.411560,387.400909 870.521912,382.593292 
	C871.344055,382.466187 872.158997,382.291779 872.981567,382.167725 
	C876.264038,381.672607 879.849060,381.400177 880.610840,385.558105 
	C881.447876,390.127350 877.532104,390.321777 874.435425,390.762207 
	C842.014954,395.373169 813.956787,409.465912 788.856506,430.024689 
	C787.184937,431.393860 785.599121,433.096008 783.664429,433.841949 
	C782.178772,434.414825 779.007812,434.230225 778.697144,433.493073 
	C778.029297,431.907806 777.991882,429.105316 779.005676,427.953796 
	C781.390442,425.245026 784.543213,423.212433 787.674438,420.695801 
z"/>
<path fill="#E2F6F8" opacity="1.000000" stroke="none" 
	d="
M821.470276,341.499390 
	C837.063782,334.496490 852.902527,329.547668 869.362793,326.605225 
	C870.017761,326.488190 870.662659,326.282074 871.321594,326.225281 
	C874.872375,325.919220 879.353149,324.403198 880.079590,329.796753 
	C880.799194,335.138977 875.904846,334.523224 872.771240,335.030884 
	C841.799316,340.048309 813.841919,352.213776 788.338257,370.289337 
	C787.253113,371.058411 786.255371,372.252716 785.061462,372.500793 
	C782.886841,372.952637 779.574829,373.825317 778.558105,372.769348 
	C776.196594,370.316620 777.568970,367.660522 780.425232,365.852448 
	C788.714783,360.605133 796.866394,355.132996 805.259216,350.058441 
	C810.371826,346.967194 815.829834,344.447205 821.470276,341.499390 
z"/>
<path fill="#E2F6F7" opacity="1.000000" stroke="none" 
	d="
M818.522583,285.500458 
	C835.849609,278.220795 853.511414,273.683685 871.777832,271.460693 
	C873.096680,271.300171 874.721619,270.732330 875.691650,271.273163 
	C877.390442,272.220245 879.699646,273.771942 879.861938,275.274597 
	C880.010010,276.645355 877.936768,278.885010 876.323425,279.657410 
	C874.320862,280.616119 871.789734,280.505127 869.477600,280.777374 
	C841.186157,284.108704 815.363464,294.040100 791.711182,309.802765 
	C789.082703,311.554474 786.533630,313.559204 783.660034,314.755707 
	C782.098206,315.406067 779.930115,314.600494 778.035400,314.451599 
	C778.554382,312.446381 778.420532,309.662811 779.712402,308.579315 
	C783.897888,305.069031 788.418030,301.855011 793.155457,299.128418 
	C801.361206,294.405670 809.826416,290.133789 818.522583,285.500458 
z"/>
<path fill="#E2F6F7" opacity="1.000000" stroke="none" 
	d="
M855.557922,366.399353 
	C830.521301,373.024384 808.225830,384.258606 788.066772,399.805298 
	C786.619019,400.921814 785.228149,402.433807 783.575500,402.869720 
	C782.018616,403.280365 779.016968,402.989319 778.666138,402.157227 
	C778.025085,400.636963 778.158020,397.577942 779.213562,396.751556 
	C786.019775,391.422821 792.898193,386.094757 800.245850,381.566284 
	C822.127808,368.080231 845.481873,358.240295 871.138977,354.566193 
	C872.455566,354.377655 874.030823,353.791321 875.058777,354.282867 
	C876.811951,355.121246 878.226074,356.668549 879.782715,357.918030 
	C878.529419,359.372650 877.509094,361.732056 875.982483,362.125122 
	C869.386169,363.823639 862.641846,364.946655 855.557922,366.399353 
z"/>
<path fill="#E2F6F8" opacity="1.000000" stroke="none" 
	d="
M852.611755,311.582703 
	C829.968262,316.620880 809.931824,326.442719 791.210388,339.181580 
	C789.148682,340.584442 787.126831,342.048370 785.030823,343.397491 
	C782.894531,344.772552 780.543030,346.372528 778.581299,343.343231 
	C776.726990,340.479797 778.182556,338.340210 780.658020,336.632965 
	C784.079468,334.273346 787.428162,331.805481 790.891663,329.510132 
	C814.530518,313.843964 840.376709,303.842987 868.394409,299.476257 
	C870.687744,299.118805 873.115479,298.554047 875.310425,298.974487 
	C877.052124,299.308136 879.457581,300.703156 879.929993,302.158630 
	C880.810242,304.870667 879.106628,306.807526 876.069458,307.333282 
	C868.375916,308.665070 860.697998,310.087097 852.611755,311.582703 
z"/>
<path fill="#F2F3F7" opacity="1.000000" stroke="none" 
	d="
M635.688904,308.302429 
	C632.903015,300.642853 629.613953,293.462189 627.870117,285.924103 
	C624.966003,273.370514 630.106201,263.576111 641.995911,258.396454 
	C656.101868,252.251343 670.529785,252.173096 684.654907,258.425446 
	C695.945068,263.422913 700.776184,272.424286 698.967346,284.628906 
	C697.022278,297.752747 691.045837,309.230255 683.602783,320.005432 
	C680.673462,324.246185 677.570435,328.367371 674.527222,332.528870 
	C670.286804,338.327576 669.408142,344.404053 673.332764,350.665070 
	C678.448792,358.826843 684.146423,366.655182 688.793091,375.069183 
	C691.962219,380.807526 694.766541,387.114166 695.962585,393.498566 
	C698.411133,406.568359 692.431396,415.506256 679.594971,419.147461 
	C667.042847,422.708008 654.535095,421.955719 642.432251,416.998138 
	C630.445007,412.087830 625.109863,402.175659 629.646423,390.047913 
	C633.149231,380.683502 638.800232,372.084717 643.857544,363.354889 
	C646.593689,358.631805 650.425293,354.542480 653.151978,349.815002 
	C656.486328,344.033997 656.223389,338.248688 652.112000,332.543640 
	C646.480164,324.728821 641.270691,316.609528 635.688904,308.302429 
M688.884216,277.246826 
	C687.008728,274.687622 685.686890,271.097504 683.164490,269.743103 
	C670.524841,262.956085 657.385132,262.977600 644.409302,268.902740 
	C640.800049,270.550812 637.584412,273.201660 637.438599,278.599823 
	C638.073730,282.847076 637.765503,287.540009 639.521790,291.257568 
	C644.681152,302.178009 650.619568,312.733124 656.358032,323.374573 
	C657.349915,325.214050 658.855835,326.776337 660.145691,328.495117 
	C660.563660,324.630859 660.920349,321.332733 661.757751,318.556274 
	C662.767334,322.653076 663.776917,326.749908 665.023315,331.807770 
	C669.519775,324.894440 673.702209,318.463898 678.440491,311.604797 
	C681.009399,306.038696 684.173828,300.657227 685.973328,294.852631 
	C687.645630,289.458191 687.862427,283.612488 688.884216,277.246826 
M666.878723,390.368286 
	C672.859009,394.521362 678.839233,398.674438 685.156677,403.061676 
	C687.385071,391.812866 674.202087,364.589081 664.077759,358.460602 
	C664.077759,367.915100 664.001465,377.181061 664.172119,386.442474 
	C664.193970,387.628387 665.501282,388.790588 666.878723,390.368286 
M641.512512,387.123871 
	C640.682678,390.834625 639.543457,394.518158 639.212585,398.272858 
	C639.114136,399.390717 642.097717,401.897156 642.295715,401.761566 
	C648.043518,397.826050 653.625366,393.647064 659.194641,389.455109 
	C659.496948,389.227570 659.564087,388.549225 659.565125,388.080353 
	C659.585876,378.882202 659.580566,369.684021 659.580566,360.485840 
	C659.059631,360.256134 658.538696,360.026428 658.017822,359.796722 
	C652.625244,368.668793 647.232727,377.540833 641.512512,387.123871 
z"/>
<path fill="#E7E7F0" opacity="1.000000" stroke="none" 
	d="
M621.515930,330.601013 
	C614.704102,334.102539 614.276001,334.020294 612.022949,329.035980 
	C620.342896,321.265411 625.526611,318.750031 627.816772,326.567230 
	C625.923767,327.780884 623.878662,329.092010 621.515930,330.601013 
z"/>
<path fill="#E7E7F0" opacity="1.000000" stroke="none" 
	d="
M619.456543,264.060547 
	C615.936279,262.635620 612.625671,261.269104 609.595093,259.438965 
	C608.677002,258.884521 607.778076,256.395782 608.183594,255.925522 
	C609.210632,254.734543 611.478821,253.143982 612.366943,253.567017 
	C615.576904,255.096146 618.558228,257.231171 621.269226,259.553680 
	C621.704285,259.926392 620.318054,262.425079 619.456543,264.060547 
z"/>
<path fill="#E7E7F0" opacity="1.000000" stroke="none" 
	d="
M719.886169,259.793457 
	C717.435608,261.266205 715.397461,262.902252 713.075378,263.620514 
	C711.752808,264.029633 709.536804,263.363678 708.552063,262.364716 
	C707.970825,261.775146 708.528381,259.105042 709.418457,258.222137 
	C711.274292,256.381287 713.525208,254.648972 715.940613,253.773438 
	C717.335754,253.267715 719.682861,254.127518 720.967102,255.161057 
	C721.526001,255.610840 720.490845,258.041412 719.886169,259.793457 
z"/>
<path fill="#E7E7F0" opacity="1.000000" stroke="none" 
	d="
M701.504028,323.273254 
	C704.193359,324.655487 706.692749,325.661255 708.815186,327.190277 
	C709.902039,327.973267 710.314453,329.692352 711.031738,330.988373 
	C709.556824,331.736328 707.738403,333.437836 706.671265,333.053528 
	C703.457336,331.896057 700.460449,330.044037 697.558655,328.182678 
	C696.917725,327.771545 696.508301,325.578339 696.867920,325.287079 
	C698.085938,324.300842 699.697021,323.799896 701.504028,323.273254 
z"/>
<path fill="#112F52" opacity="1.000000" stroke="none" 
	d="
M563.022095,275.034607 
	C562.826355,267.100891 562.590271,259.167816 562.466003,251.232971 
	C562.438110,249.452484 562.801697,247.665863 562.972656,245.443787 
	C562.968140,243.934921 562.976074,242.864349 562.985962,240.994308 
	C562.991943,239.131714 562.995972,238.068588 563.000000,237.005463 
	C564.105591,235.710327 565.211182,234.415207 566.656128,233.439316 
	C566.995300,234.498047 566.995239,235.237518 566.721313,236.218384 
	C565.706360,238.461700 564.433594,240.434753 564.322937,242.470963 
	C563.981934,248.746353 564.189331,255.049362 563.980225,261.334869 
	C563.828064,265.907013 563.353149,270.468414 563.022095,275.034607 
z"/>
<path fill="#1E2544" opacity="1.000000" stroke="none" 
	d="
M566.995117,235.977005 
	C566.995239,235.237518 566.995300,234.498047 566.991211,233.389359 
	C567.817383,235.174973 568.647766,237.329788 568.918823,239.750229 
	C568.147888,240.045914 567.936340,240.076004 567.551514,239.800751 
	C567.250610,238.322601 567.122864,237.149796 566.995117,235.977005 
z"/>
<path fill="#1D1F47" opacity="1.000000" stroke="none" 
	d="
M562.670898,237.086823 
	C562.995972,238.068588 562.991943,239.131714 562.976807,240.593033 
	C560.520142,240.082031 560.402588,238.792938 562.670898,237.086823 
z"/>
<path fill="#112F52" opacity="1.000000" stroke="none" 
	d="
M567.724731,240.106094 
	C567.936340,240.076004 568.147888,240.045914 568.680054,240.008301 
	C569.000610,240.000763 569.000000,240.500671 568.999146,240.750916 
	C568.805176,241.000153 568.612061,240.999115 568.096924,240.771210 
	C567.774963,240.544327 567.724731,240.106094 567.724731,240.106094 
z"/>
<path fill="#1D5280" opacity="1.000000" stroke="none" 
	d="
M922.015625,395.982178 
	C922.038025,387.971832 922.060364,379.961456 922.086609,371.013855 
	C922.380066,360.295837 922.881348,350.515961 922.920166,340.734222 
	C923.046143,308.986816 922.961121,277.238586 923.086243,245.491180 
	C923.099243,242.181442 923.970398,238.875092 924.443420,235.567169 
	C925.107727,235.550629 925.771973,235.534088 926.436218,235.517532 
	C926.941406,238.280853 927.714783,241.026352 927.899780,243.810944 
	C928.391418,251.208847 928.629150,258.623627 928.967834,266.031677 
	C928.990479,321.706055 929.013184,377.380463 928.630981,433.510010 
	C927.151001,432.444214 925.641052,431.065002 925.089722,429.373352 
	C923.875793,425.648834 923.145874,421.766602 922.171143,417.505066 
	C922.088501,414.371582 922.053223,411.681702 922.032837,408.549347 
	C922.039429,405.742249 922.031189,403.377686 922.041626,400.594116 
	C922.045471,398.777466 922.030579,397.379822 922.015625,395.982178 
z"/>
<path fill="#17638B" opacity="1.000000" stroke="none" 
	d="
M567.551514,239.800751 
	C567.724731,240.106094 567.774963,240.544327 567.807373,240.762039 
	C567.877319,293.332550 567.914795,345.685333 567.943359,398.973450 
	C567.988037,404.605408 568.041748,409.302002 568.095398,413.998596 
	C568.108765,419.694641 568.122131,425.390686 568.103271,431.801819 
	C568.011169,432.686859 567.951355,432.856781 567.521851,433.154785 
	C566.914307,438.450836 566.584595,443.616638 566.464355,448.787354 
	C566.345581,453.897736 566.438416,459.013031 566.438416,464.126190 
	C566.180054,464.136810 565.921692,464.147430 565.663391,464.158051 
	C564.770569,459.103485 563.877808,454.048889 562.967163,448.526489 
	C562.950562,443.237518 562.953308,438.416412 562.952637,433.595276 
	C562.946350,385.053070 562.939514,336.510834 562.932861,287.968628 
	C562.955139,285.942535 562.977478,283.916443 563.014404,281.194550 
	C563.017822,280.323669 563.006592,280.148560 562.995361,279.973480 
	C563.013794,278.600708 563.032288,277.227936 563.036438,275.444885 
	C563.353149,270.468414 563.828064,265.907013 563.980225,261.334869 
	C564.189331,255.049362 563.981934,248.746353 564.322937,242.470963 
	C564.433594,240.434753 565.706360,238.461700 566.721313,236.218384 
	C567.122864,237.149796 567.250610,238.322601 567.551514,239.800751 
z"/>
<path fill="#246984" opacity="1.000000" stroke="none" 
	d="
M562.984985,448.994324 
	C563.877808,454.048889 564.770569,459.103485 565.663391,464.158051 
	C565.921692,464.147430 566.180054,464.136810 566.438416,464.126190 
	C566.438416,459.013031 566.345581,453.897736 566.464355,448.787354 
	C566.584595,443.616638 566.914307,438.450836 567.572876,433.618469 
	C568.013672,438.105957 567.808105,442.274017 568.104797,446.406036 
	C568.598328,453.278412 569.414062,460.127655 570.094116,466.986633 
	C570.526123,467.884918 570.958130,468.783173 571.809570,470.161743 
	C573.818726,471.433044 575.408447,472.224091 577.251282,473.259491 
	C578.661621,473.697235 579.818970,473.890625 581.264282,474.320129 
	C583.046814,474.658966 584.541382,474.761719 586.035950,474.864502 
	C587.409180,474.918518 588.782349,474.972504 590.900391,475.261536 
	C608.772827,477.227661 625.900452,478.958740 643.028076,480.689819 
	C656.477356,482.666199 669.701538,485.452698 681.960144,492.088348 
	C678.451538,491.649628 674.927124,491.310059 671.436768,490.756561 
	C642.382080,486.149292 613.354797,481.366425 583.831848,480.805634 
	C579.714355,480.727448 575.447998,480.210297 571.560486,478.944641 
	C568.512512,477.952332 565.943604,475.488800 563.096741,472.872681 
	C563.016052,464.375763 563.000549,456.685059 562.984985,448.994324 
z"/>
<path fill="#1C4B70" opacity="1.000000" stroke="none" 
	d="
M922.218384,417.948730 
	C923.145874,421.766602 923.875793,425.648834 925.089722,429.373352 
	C925.641052,431.065002 927.151001,432.444214 928.625732,433.978058 
	C929.025452,433.990967 929.125854,433.952606 929.118286,434.424316 
	C929.087158,445.210175 928.784912,455.534241 929.149841,465.834595 
	C929.351990,471.542053 927.846069,475.916107 923.004883,479.010254 
	C918.968445,479.718689 914.932068,480.427124 910.000488,481.118958 
	C906.077332,481.080414 903.049316,481.058472 899.950562,480.710144 
	C898.912231,478.939697 897.944580,477.495667 897.437683,476.020081 
	C900.060303,475.975800 902.235046,476.111389 904.382019,475.925964 
	C916.617310,474.869080 922.372437,471.188416 922.092102,457.852936 
	C921.812622,444.558289 922.150940,431.250671 922.218384,417.948730 
z"/>
<path fill="#1F5F7B" opacity="1.000000" stroke="none" 
	d="
M896.976990,476.051666 
	C897.944580,477.495667 898.912231,478.939697 899.606873,480.936279 
	C889.555664,482.337860 879.777466,483.186798 869.999207,484.035736 
	C868.888306,484.224792 867.777344,484.413818 865.896851,484.739227 
	C855.727966,486.205505 846.328613,487.535400 836.929321,488.865234 
	C835.880737,488.930359 834.832092,488.995453 832.982544,489.089355 
	C827.092285,489.983124 822.003052,490.848145 816.913818,491.713165 
	C814.185425,491.809540 811.457153,491.908478 808.728455,491.994324 
	C808.595947,491.998505 808.340637,491.875732 808.344971,491.832245 
	C808.370422,491.576996 808.456055,491.327728 809.139648,490.941895 
	C812.406311,489.941559 815.060486,489.092438 817.702026,488.205902 
	C821.538757,486.918274 825.366394,485.603699 829.197937,484.300598 
	C829.892883,484.240448 830.587891,484.180298 831.887817,484.077698 
	C832.661743,484.004822 832.830811,483.974335 832.999817,483.943817 
	C834.106445,483.681030 835.213135,483.418243 837.067749,483.082123 
	C857.332520,478.957947 876.936401,475.648346 896.976990,476.051666 
z"/>
<path fill="#14234D" opacity="1.000000" stroke="none" 
	d="
M897.437683,476.020081 
	C876.936401,475.648346 857.332520,478.957947 837.403442,483.013794 
	C840.190063,478.189758 845.549988,477.972626 850.401550,477.111755 
	C858.693970,475.640350 867.077332,474.681519 875.713684,473.251373 
	C876.447693,472.995361 876.890564,472.995392 877.665466,472.991638 
	C884.710571,472.879608 891.423706,472.777710 898.136536,472.658264 
	C899.585510,472.632477 901.033447,472.543457 902.743103,472.240967 
	C908.203613,472.207245 913.552063,472.671051 916.682861,467.203278 
	C917.713379,465.403473 918.817383,463.341553 918.905090,461.356079 
	C919.429321,449.485809 919.617371,437.601166 920.022400,425.724915 
	C920.203125,420.427704 920.626648,415.138763 921.215698,409.420685 
	C921.666931,408.994141 921.842468,408.992981 922.017944,408.991852 
	C922.053223,411.681702 922.088501,414.371582 922.171082,417.505066 
	C922.150940,431.250671 921.812622,444.558289 922.092102,457.852936 
	C922.372437,471.188416 916.617310,474.869080 904.382019,475.925964 
	C902.235046,476.111389 900.060303,475.975800 897.437683,476.020081 
z"/>
<path fill="#112F52" opacity="1.000000" stroke="none" 
	d="
M562.967163,448.526489 
	C563.000549,456.685059 563.016052,464.375763 563.018860,472.535645 
	C562.351013,472.176666 561.189453,471.387115 561.122925,470.514099 
	C560.682922,464.742188 560.259216,458.952484 560.257080,453.168365 
	C560.254822,447.106720 560.953552,441.045197 560.962219,434.983063 
	C561.029358,388.091797 560.988708,341.200378 561.056763,294.309113 
	C561.059692,292.286469 561.798462,290.264862 562.563599,288.105713 
	C562.939514,336.510834 562.946350,385.053070 562.952637,433.595276 
	C562.953308,438.416412 562.950562,443.237518 562.967163,448.526489 
z"/>
<path fill="#14234D" opacity="1.000000" stroke="none" 
	d="
M929.234497,265.718079 
	C928.629150,258.623627 928.391418,251.208847 927.899780,243.810944 
	C927.714783,241.026352 926.941406,238.280853 926.436218,235.517532 
	C925.771973,235.534088 925.107727,235.550629 924.443420,235.567169 
	C923.970398,238.875092 923.099243,242.181442 923.086243,245.491180 
	C922.961121,277.238586 923.046143,308.986816 922.920166,340.734222 
	C922.881348,350.515961 922.380066,360.295837 922.073364,370.546326 
	C921.876892,371.014282 921.697571,371.012451 921.255066,370.536194 
	C920.993774,366.917511 921.116760,363.767578 920.969666,360.630280 
	C920.740784,355.749176 920.328308,350.876740 919.993713,346.000610 
	C919.996643,332.647369 919.999573,319.294098 920.312012,305.411499 
	C921.072144,304.251343 921.522705,303.620544 921.973267,302.989746 
	C921.976807,301.928802 921.980347,300.867859 921.978760,299.409546 
	C921.648071,280.914429 921.352905,262.815948 920.943970,244.720047 
	C920.908447,243.148361 920.168884,241.578979 919.676514,240.033981 
	C918.450806,236.187454 921.248718,234.271851 923.841064,233.379227 
	C925.010193,232.976669 928.584106,235.381546 928.667114,236.667572 
	C929.284058,246.224640 929.297974,255.820663 929.234497,265.718079 
z"/>
<path fill="#14234D" opacity="1.000000" stroke="none" 
	d="
M923.240906,479.224548 
	C927.846069,475.916107 929.351990,471.542053 929.149841,465.834595 
	C928.784912,455.534241 929.087158,445.210175 929.171997,434.425201 
	C930.154297,435.214325 931.733887,436.398468 931.889099,437.746582 
	C932.873657,446.298004 933.464905,454.893707 934.342346,463.458771 
	C935.004944,469.926239 929.283752,478.501434 923.240906,479.224548 
z"/>
<path fill="#14234D" opacity="1.000000" stroke="none" 
	d="
M837.145020,489.144104 
	C846.328613,487.535400 855.727966,486.205505 865.586182,484.880432 
	C865.960449,485.027924 865.904480,485.263794 865.787109,485.299835 
	C860.851257,486.816711 856.899719,489.932190 852.709351,492.812683 
	C846.754822,496.905914 841.478638,495.098755 837.145020,489.144104 
z"/>
<path fill="#112F52" opacity="1.000000" stroke="none" 
	d="
M642.905640,480.378326 
	C625.900452,478.958740 608.772827,477.227661 591.312744,475.248413 
	C596.339661,474.358795 601.757568,472.886719 607.045349,473.259735 
	C616.249329,473.909119 625.396912,475.554565 634.515991,477.091522 
	C637.358154,477.570557 640.032227,479.046997 642.905640,480.378326 
z"/>
<path fill="#14234D" opacity="1.000000" stroke="none" 
	d="
M870.319946,484.291748 
	C879.777466,483.186798 889.555664,482.337860 899.677612,481.262726 
	C903.049316,481.058472 906.077332,481.080414 909.557556,481.155243 
	C907.980103,484.857391 902.756897,486.421631 898.284424,485.222992 
	C895.864807,484.574524 893.217224,484.661926 890.669678,484.628143 
	C883.994141,484.539551 877.317139,484.566742 870.319946,484.291748 
z"/>
<path fill="#14234D" opacity="1.000000" stroke="none" 
	d="
M828.977112,484.026245 
	C825.366394,485.603699 821.538757,486.918274 817.702026,488.205902 
	C815.060486,489.092438 812.406311,489.941559 809.390625,490.831390 
	C809.394348,489.809753 809.573242,487.984650 810.165894,487.838623 
	C816.324463,486.321289 822.549622,485.074127 828.977112,484.026245 
z"/>
<path fill="#14234D" opacity="1.000000" stroke="none" 
	d="
M816.932251,492.029053 
	C822.003052,490.848145 827.092285,489.983124 832.591919,489.140778 
	C828.751099,493.496521 823.265930,492.990082 817.455750,493.003540 
	C816.996460,492.996613 816.977295,492.977264 816.977295,492.977264 
	C816.968445,492.766510 816.959534,492.555756 816.932251,492.029053 
z"/>
<path fill="#112F52" opacity="1.000000" stroke="none" 
	d="
M585.954895,474.565308 
	C584.541382,474.761719 583.046814,474.658966 581.272583,473.975342 
	C581.002258,472.936493 581.011658,472.478516 581.021057,472.020538 
	C581.458008,472.020660 581.894958,472.020752 582.659424,472.023193 
	C583.949280,472.772369 584.911560,473.519226 585.954895,474.565308 
z"/>
<path fill="#14234D" opacity="1.000000" stroke="none" 
	d="
M817.003784,493.007324 
	C816.442383,493.322235 815.873596,493.626465 815.304871,493.930695 
	C815.231567,493.718475 815.158264,493.506226 815.084900,493.293976 
	C815.537415,493.194489 815.989990,493.094971 816.709900,492.986359 
	C816.977295,492.977264 816.996460,492.996613 817.003784,493.007324 
z"/>
<path fill="#112F52" opacity="1.000000" stroke="none" 
	d="
M562.854980,280.076355 
	C563.006592,280.148560 563.017822,280.323669 562.999329,280.760437 
	C562.834961,280.844818 562.678528,280.678711 562.578430,280.483673 
	C562.546692,280.421783 562.664978,280.282867 562.854980,280.076355 
z"/>
<path fill="#14234D" opacity="1.000000" stroke="none" 
	d="
M832.887634,483.816040 
	C832.830811,483.974335 832.661743,484.004822 832.234863,484.043152 
	C832.243164,483.930084 832.509277,483.809204 832.887634,483.816040 
z"/>
<path fill="#1D1F47" opacity="1.000000" stroke="none" 
	d="
M919.731079,346.321960 
	C920.328308,350.876740 920.740784,355.749176 920.969666,360.630280 
	C921.116760,363.767578 920.993774,366.917511 920.986206,370.530090 
	C920.331665,370.167053 919.122498,369.336273 919.121765,368.504364 
	C919.114807,361.217468 919.323669,353.930389 919.731079,346.321960 
z"/>
<path fill="#1D1F47" opacity="1.000000" stroke="none" 
	d="
M922.032837,408.549347 
	C921.842468,408.992981 921.666931,408.994141 921.227783,408.999573 
	C917.290222,406.761200 919.334229,403.515778 920.002869,400.418549 
	C921.017883,400.494843 921.520386,400.753967 922.022949,401.013092 
	C922.031189,403.377686 922.039429,405.742249 922.032837,408.549347 
z"/>
<path fill="#14234D" opacity="1.000000" stroke="none" 
	d="
M922.041626,400.594116 
	C921.520386,400.753967 921.017883,400.494843 920.258911,400.117218 
	C920.442627,398.721069 920.882874,397.443390 921.669373,396.073944 
	C922.030579,397.379822 922.045471,398.777466 922.041626,400.594116 
z"/>
<path fill="#1D1F47" opacity="1.000000" stroke="none" 
	d="
M921.667847,303.054626 
	C921.522705,303.620544 921.072144,304.251343 920.313843,304.944946 
	C920.458191,304.378326 920.910278,303.748932 921.667847,303.054626 
z"/>
<path fill="#1B1943" opacity="1.000000" stroke="none" 
	d="
M570.415405,466.907288 
	C569.414062,460.127655 568.598328,453.278412 568.104797,446.406036 
	C567.808105,442.274017 568.013672,438.105957 567.942505,433.490417 
	C567.951355,432.856781 568.011169,432.686859 568.172546,432.265717 
	C571.803711,432.161560 571.939331,434.783661 571.972229,437.295776 
	C572.049866,443.216888 572.001892,449.139648 571.767639,455.769531 
	C571.689270,457.985931 571.848022,459.494537 572.006775,461.003143 
	C572.006042,461.751190 572.005310,462.499268 572.005981,463.621216 
	C571.583801,464.939392 571.160278,465.883667 570.415405,466.907288 
z"/>
<path fill="#112F52" opacity="1.000000" stroke="none" 
	d="
M568.340576,413.670715 
	C568.041748,409.302002 567.988037,404.605408 567.963379,399.440002 
	C568.190125,403.761719 568.387939,408.552277 568.340576,413.670715 
z"/>
<path fill="#1D1F47" opacity="1.000000" stroke="none" 
	d="
M572.349304,460.909515 
	C571.848022,459.494537 571.689270,457.985931 571.768921,456.238037 
	C574.748657,457.247375 574.749573,458.885345 572.349304,460.909515 
z"/>
<path fill="#1B1943" opacity="1.000000" stroke="none" 
	d="
M576.998230,473.015106 
	C575.408447,472.224091 573.818726,471.433044 572.048828,470.343445 
	C573.331482,470.327484 574.794250,470.610138 576.624878,470.946381 
	C576.992676,471.000000 577.000000,471.000000 576.999023,471.337769 
	C576.998108,472.122070 576.998169,472.568604 576.998230,473.015106 
z"/>
<path fill="#1D1F47" opacity="1.000000" stroke="none" 
	d="
M577.251282,473.259491 
	C576.998169,472.568604 576.998108,472.122070 576.999023,471.340881 
	C578.168335,471.179535 579.336609,471.352905 580.763000,471.773407 
	C581.011658,472.478516 581.002258,472.936493 580.984558,473.739258 
	C579.818970,473.890625 578.661621,473.697235 577.251282,473.259491 
z"/>
<path fill="#168390" opacity="1.000000" stroke="none" 
	d="
M661.277100,318.034607 
	C660.920349,321.332733 660.563660,324.630859 660.145691,328.495117 
	C658.855835,326.776337 657.349915,325.214050 656.358032,323.374573 
	C650.619568,312.733124 644.681152,302.178009 639.521790,291.257568 
	C637.765503,287.540009 638.073730,282.847076 638.044800,278.313293 
	C644.900696,281.308075 651.354919,284.261536 657.327454,287.987122 
	C661.240112,290.427734 664.000977,291.559357 668.165833,288.087341 
	C674.090759,283.148071 680.588318,278.722595 688.720032,277.965454 
	C687.862427,283.612488 687.645630,289.458191 685.973328,294.852631 
	C684.173828,300.657227 681.009399,306.038696 677.828003,311.917084 
	C674.352051,313.428162 671.523987,314.723053 668.614075,315.795837 
	C666.218811,316.678772 663.726379,317.298340 661.277100,318.034607 
z"/>
<path fill="#1A214A" opacity="1.000000" stroke="none" 
	d="
M688.802124,277.606140 
	C680.588318,278.722595 674.090759,283.148071 668.165833,288.087341 
	C664.000977,291.559357 661.240112,290.427734 657.327454,287.987122 
	C651.354919,284.261536 644.900696,281.308075 638.268066,278.014221 
	C637.584412,273.201660 640.800049,270.550812 644.409302,268.902740 
	C657.385132,262.977600 670.524841,262.956085 683.164490,269.743103 
	C685.686890,271.097504 687.008728,274.687622 688.802124,277.606140 
z"/>
<path fill="#252348" opacity="1.000000" stroke="none" 
	d="
M666.545898,390.166046 
	C665.501282,388.790588 664.193970,387.628387 664.172119,386.442474 
	C664.001465,377.181061 664.077759,367.915100 664.077759,358.460602 
	C674.202087,364.589081 687.385071,391.812866 685.156677,403.061676 
	C678.839233,398.674438 672.859009,394.521362 666.545898,390.166046 
z"/>
<path fill="#252348" opacity="1.000000" stroke="none" 
	d="
M641.676392,386.768372 
	C647.232727,377.540833 652.625244,368.668793 658.017822,359.796722 
	C658.538696,360.026428 659.059631,360.256134 659.580566,360.485840 
	C659.580566,369.684021 659.585876,378.882202 659.565125,388.080353 
	C659.564087,388.549225 659.496948,389.227570 659.194641,389.455109 
	C653.625366,393.647064 648.043518,397.826050 642.295715,401.761566 
	C642.097717,401.897156 639.114136,399.390717 639.212585,398.272858 
	C639.543457,394.518158 640.682678,390.834625 641.676392,386.768372 
z"/>
<path fill="#112F52" opacity="1.000000" stroke="none" 
	d="
M661.517395,318.295441 
	C663.726379,317.298340 666.218811,316.678772 668.614075,315.795837 
	C671.523987,314.723053 674.352051,313.428162 677.550049,312.131348 
	C673.702209,318.463898 669.519775,324.894440 665.023315,331.807770 
	C663.776917,326.749908 662.767334,322.653076 661.517395,318.295441 
z"/>
</svg>